<svg xmlns="http://www.w3.org/2000/svg" xmlns:xlink="http://www.w3.org/1999/xlink" viewBox="0 0 943.84 209.06"><defs><style>.cls-1{fill:#fff;}.cls-2{fill:none;}.cls-3{mask:url(#mask);}.cls-4,.cls-5{fill:#3b5bfd;}.cls-5{font-size:80px;font-family:SFProText-Ultralight, SF Pro Text;font-weight:100;}</style><mask id="mask" x="0" y="0.01" width="616" height="209.06" maskUnits="userSpaceOnUse"><g id="b"><path class="cls-1" d="M0,0H616V209.06H0Z"/></g></mask></defs><g id="Camada_2" data-name="Camada 2"><g id="Camada_1-2" data-name="Camada 1"><g id="b-2" data-name="b"><path class="cls-2" d="M0,0H615.71V209.06H0Z"/></g><g class="cls-3"><path class="cls-4" d="M276.36,119.43a33.06,33.06,0,0,1-24.92,24.91c-18,4.3-35.8-7.16-40.09-24.91a33.82,33.82,0,0,1,0-15.18,33.06,33.06,0,0,1,24.91-24.92c18-4.29,35.8,7.16,40.1,24.92A34.11,34.11,0,0,1,276.36,119.43Zm-9.16-65c-32.11-12.38-57.85,6.91-57.85,6.91l-5.21-6.91H180.42V209.06h28.64V160.39s15.62,11.52,36.44,11.52c35.87,0,64.51-30.82,60.75-67.1A61.15,61.15,0,0,0,267.2,54.41Zm79,45.82c0-.28,7.45-21.19,30.64-21.19,22.91,0,30.65,21.19,30.65,21.19ZM376.87,50.7a60.71,60.71,0,1,0,55,86.76H397.49a55.32,55.32,0,0,0-6.58,3.73,31,31,0,0,1-14.32,3.15c-20.91,0-29.21-16-29.5-21.2h89.06c.29-2.28.86-5.43,1.15-8.29A60.49,60.49,0,0,0,376.87,50.7ZM484,54.41V50.08c1.12-22.5,22.69-26.25,25.77-26.54V1.41c-7.44-.27-55.27,6.63-55,53H441V77.32h11.46v94.51h28.64V80.19H511.2L539.59,133l-40.88,76.08h34.86l40.62-77.33L533.85,54.41Zm99.09,0L565.31,87.63,581.63,118,616,54.41ZM137.46,171.83H166.1V57.28H137.46Zm-43-52.4a33,33,0,0,1-24.91,24.91c-18,4.3-35.8-7.16-40.09-24.91a33.82,33.82,0,0,1,0-15.18A33.06,33.06,0,0,1,54.41,79.33c18-4.29,35.8,7.16,40.09,24.92A33.82,33.82,0,0,1,94.5,119.43Zm-7.72-65C54.67,42,28.93,61.32,28.93,61.32l-5.21-6.91H0V209.06H28.64V160.39s15.62,11.52,36.45,11.52c35.87,0,64.5-30.82,60.74-67.1A61.15,61.15,0,0,0,86.78,54.41Z"/></g><text class="cls-5" transform="translate(639 147.61)">UI Clone</text></g></g></svg>