<svg width="900" height="160" viewBox="0 0 900 160" fill="none" xmlns="http://www.w3.org/2000/svg">
<g clip-path="url(#clip0)">
<rect width="900" height="160" rx="4" fill="white"/>
<rect width="900" height="160" rx="4" fill="#327FFF"/>
<path d="M629 21.2309L638.3 30.5834" stroke="#0B66FF" stroke-width="2" stroke-miterlimit="10" stroke-linecap="round" stroke-linejoin="round"/>
<path d="M638.3 21.2309L629 30.5834" stroke="#0B66FF" stroke-width="2" stroke-miterlimit="10" stroke-linecap="round" stroke-linejoin="round"/>
<path d="M81.5749 132.445V145.671" stroke="#0B66FF" stroke-width="2" stroke-miterlimit="10" stroke-linecap="round" stroke-linejoin="round"/>
<path d="M88.1675 139.056H75" stroke="#0B66FF" stroke-width="2" stroke-miterlimit="10" stroke-linecap="round" stroke-linejoin="round"/>
<path d="M510.986 128.443C510.986 132.872 507.413 136.481 502.993 136.481C498.588 136.481 495 132.888 495 128.443C495 124.014 498.573 120.405 502.993 120.405C507.413 120.421 510.986 124.014 510.986 128.443Z" stroke="#0B66FF" stroke-width="2" stroke-miterlimit="10" stroke-linecap="round" stroke-linejoin="round"/>
<path d="M14.5386 25.0401C16.1373 25.0401 17.4334 23.7368 17.4334 22.1291C17.4334 20.5214 16.1373 19.2181 14.5386 19.2181C12.9398 19.2181 11.6437 20.5214 11.6437 22.1291C11.6437 23.7368 12.9398 25.0401 14.5386 25.0401Z" fill="#327FFF"/>
<path d="M34.7427 25.0401C36.3415 25.0401 37.6375 23.7368 37.6375 22.1291C37.6375 20.5214 36.3415 19.2181 34.7427 19.2181C33.144 19.2181 31.8479 20.5214 31.8479 22.1291C31.8479 23.7368 33.144 25.0401 34.7427 25.0401Z" fill="#327FFF"/>
<path d="M54.9622 25.0401C56.561 25.0401 57.8571 23.7368 57.8571 22.1291C57.8571 20.5214 56.561 19.2181 54.9622 19.2181C53.3635 19.2181 52.0674 20.5214 52.0674 22.1291C52.0674 23.7368 53.3635 25.0401 54.9622 25.0401Z" fill="#327FFF"/>
<path d="M14.5389 45.3592C16.1377 45.3592 17.4338 44.0558 17.4338 42.4481C17.4338 40.8404 16.1377 39.5371 14.5389 39.5371C12.9402 39.5371 11.6441 40.8404 11.6441 42.4481C11.6441 44.0558 12.9402 45.3592 14.5389 45.3592Z" fill="#327FFF"/>
<path d="M34.743 45.3592C36.3417 45.3592 37.6378 44.0558 37.6378 42.4481C37.6378 40.8404 36.3417 39.5371 34.743 39.5371C33.1442 39.5371 31.8481 40.8404 31.8481 42.4481C31.8481 44.0558 33.1442 45.3592 34.743 45.3592Z" fill="#327FFF"/>
<path d="M54.9622 45.3592C56.561 45.3592 57.8571 44.0558 57.8571 42.4481C57.8571 40.8404 56.561 39.5371 54.9622 39.5371C53.3635 39.5371 52.0674 40.8404 52.0674 42.4481C52.0674 44.0558 53.3635 45.3592 54.9622 45.3592Z" fill="#327FFF"/>
<path d="M14.5389 65.6935C16.1377 65.6935 17.4338 64.3902 17.4338 62.7825C17.4338 61.1748 16.1377 59.8714 14.5389 59.8714C12.9402 59.8714 11.6441 61.1748 11.6441 62.7825C11.6441 64.3902 12.9402 65.6935 14.5389 65.6935Z" fill="#327FFF"/>
<path d="M34.743 65.6935C36.3417 65.6935 37.6378 64.3902 37.6378 62.7825C37.6378 61.1748 36.3417 59.8714 34.743 59.8714C33.1442 59.8714 31.8481 61.1748 31.8481 62.7825C31.8481 64.3902 33.1442 65.6935 34.743 65.6935Z" fill="#327FFF"/>
<path d="M54.9622 65.6935C56.561 65.6935 57.8571 64.3902 57.8571 62.7825C57.8571 61.1748 56.561 59.8714 54.9622 59.8714C53.3635 59.8714 52.0674 61.1748 52.0674 62.7825C52.0674 64.3902 53.3635 65.6935 54.9622 65.6935Z" fill="#327FFF"/>
<path d="M14.5389 86.0121C16.1377 86.0121 17.4338 84.7088 17.4338 83.1011C17.4338 81.4934 16.1377 80.19 14.5389 80.19C12.9402 80.19 11.6441 81.4934 11.6441 83.1011C11.6441 84.7088 12.9402 86.0121 14.5389 86.0121Z" fill="#327FFF"/>
<path d="M34.743 86.0121C36.3417 86.0121 37.6378 84.7088 37.6378 83.1011C37.6378 81.4934 36.3417 80.19 34.743 80.19C33.1442 80.19 31.8481 81.4934 31.8481 83.1011C31.8481 84.7088 33.1442 86.0121 34.743 86.0121Z" fill="#327FFF"/>
<path d="M54.9622 86.0121C56.561 86.0121 57.8571 84.7088 57.8571 83.1011C57.8571 81.4934 56.561 80.19 54.9622 80.19C53.3635 80.19 52.0674 81.4934 52.0674 83.1011C52.0674 84.7088 53.3635 86.0121 54.9622 86.0121Z" fill="#327FFF"/>
<path d="M897.507 25.0402C899.106 25.0402 900.402 23.7369 900.402 22.1291C900.402 20.5214 899.106 19.2181 897.507 19.2181C895.908 19.2181 894.612 20.5214 894.612 22.1291C894.612 23.7369 895.908 25.0402 897.507 25.0402Z" fill="#327FFF"/>
<path d="M897.507 45.3745C899.106 45.3745 900.402 44.0712 900.402 42.4635C900.402 40.8558 899.106 39.5525 897.507 39.5525C895.908 39.5525 894.612 40.8558 894.612 42.4635C894.612 44.0712 895.908 45.3745 897.507 45.3745Z" fill="#327FFF"/>
<path d="M897.507 65.6936C899.106 65.6936 900.402 64.3903 900.402 62.7825C900.402 61.1748 899.106 59.8715 897.507 59.8715C895.908 59.8715 894.612 61.1748 894.612 62.7825C894.612 64.3903 895.908 65.6936 897.507 65.6936Z" fill="#327FFF"/>
<path d="M897.507 86.0279C899.106 86.0279 900.402 84.7246 900.402 83.1169C900.402 81.5092 899.106 80.2058 897.507 80.2058C895.908 80.2058 894.612 81.5092 894.612 83.1169C894.612 84.7246 895.908 86.0279 897.507 86.0279Z" fill="#327FFF"/>
<path d="M897.507 106.347C899.106 106.347 900.402 105.043 900.402 103.436C900.402 101.828 899.106 100.525 897.507 100.525C895.908 100.525 894.612 101.828 894.612 103.436C894.612 105.043 895.908 106.347 897.507 106.347Z" fill="#327FFF"/>
<path d="M897.507 126.681C899.106 126.681 900.402 125.378 900.402 123.77C900.402 122.162 899.106 120.859 897.507 120.859C895.908 120.859 894.612 122.162 894.612 123.77C894.612 125.378 895.908 126.681 897.507 126.681Z" fill="#327FFF"/>
<path d="M897.507 147C899.106 147 900.402 145.697 900.402 144.089C900.402 142.481 899.106 141.178 897.507 141.178C895.908 141.178 894.612 142.481 894.612 144.089C894.612 145.697 895.908 147 897.507 147Z" fill="#327FFF"/>
<path d="M877.302 25.0402C878.901 25.0402 880.197 23.7369 880.197 22.1291C880.197 20.5214 878.901 19.2181 877.302 19.2181C875.704 19.2181 874.408 20.5214 874.408 22.1291C874.408 23.7369 875.704 25.0402 877.302 25.0402Z" fill="#327FFF"/>
<path d="M877.302 45.3745C878.901 45.3745 880.197 44.0712 880.197 42.4635C880.197 40.8558 878.901 39.5525 877.302 39.5525C875.704 39.5525 874.408 40.8558 874.408 42.4635C874.408 44.0712 875.704 45.3745 877.302 45.3745Z" fill="#327FFF"/>
<path d="M877.302 65.6936C878.901 65.6936 880.197 64.3903 880.197 62.7825C880.197 61.1748 878.901 59.8715 877.302 59.8715C875.704 59.8715 874.408 61.1748 874.408 62.7825C874.408 64.3903 875.704 65.6936 877.302 65.6936Z" fill="#327FFF"/>
<path d="M877.302 86.0279C878.901 86.0279 880.197 84.7246 880.197 83.1169C880.197 81.5092 878.901 80.2058 877.302 80.2058C875.704 80.2058 874.408 81.5092 874.408 83.1169C874.408 84.7246 875.704 86.0279 877.302 86.0279Z" fill="#327FFF"/>
<path d="M877.302 106.347C878.901 106.347 880.197 105.043 880.197 103.436C880.197 101.828 878.901 100.525 877.302 100.525C875.704 100.525 874.408 101.828 874.408 103.436C874.408 105.043 875.704 106.347 877.302 106.347Z" fill="#327FFF"/>
<path d="M877.302 126.681C878.901 126.681 880.197 125.378 880.197 123.77C880.197 122.162 878.901 120.859 877.302 120.859C875.704 120.859 874.408 122.162 874.408 123.77C874.408 125.378 875.704 126.681 877.302 126.681Z" fill="#327FFF"/>
<path d="M877.302 147C878.901 147 880.197 145.697 880.197 144.089C880.197 142.481 878.901 141.178 877.302 141.178C875.704 141.178 874.408 142.481 874.408 144.089C874.408 145.697 875.704 147 877.302 147Z" fill="#327FFF"/>
<path d="M857.084 25.0412C858.682 25.0412 859.978 23.7379 859.978 22.1301C859.978 20.5224 858.682 19.2191 857.084 19.2191C855.485 19.2191 854.189 20.5224 854.189 22.1301C854.189 23.7379 855.485 25.0412 857.084 25.0412Z" fill="#327FFF"/>
<path d="M857.083 45.3745C858.682 45.3745 859.978 44.0712 859.978 42.4635C859.978 40.8558 858.682 39.5525 857.083 39.5525C855.484 39.5525 854.188 40.8558 854.188 42.4635C854.188 44.0712 855.484 45.3745 857.083 45.3745Z" fill="#327FFF"/>
<path d="M857.083 65.6936C858.682 65.6936 859.978 64.3903 859.978 62.7825C859.978 61.1748 858.682 59.8715 857.083 59.8715C855.484 59.8715 854.188 61.1748 854.188 62.7825C854.188 64.3903 855.484 65.6936 857.083 65.6936Z" fill="#327FFF"/>
<path d="M857.083 86.0279C858.682 86.0279 859.978 84.7245 859.978 83.1168C859.978 81.5091 858.682 80.2058 857.083 80.2058C855.484 80.2058 854.188 81.5091 854.188 83.1168C854.188 84.7245 855.484 86.0279 857.083 86.0279Z" fill="#327FFF"/>
<path d="M857.083 106.347C858.682 106.347 859.978 105.043 859.978 103.436C859.978 101.828 858.682 100.525 857.083 100.525C855.484 100.525 854.188 101.828 854.188 103.436C854.188 105.043 855.484 106.347 857.083 106.347Z" fill="#327FFF"/>
<path d="M857.083 126.681C858.682 126.681 859.978 125.378 859.978 123.77C859.978 122.162 858.682 120.859 857.083 120.859C855.484 120.859 854.188 122.162 854.188 123.77C854.188 125.378 855.484 126.681 857.083 126.681Z" fill="#327FFF"/>
<path d="M857.083 147C858.682 147 859.978 145.697 859.978 144.089C859.978 142.481 858.682 141.178 857.083 141.178C855.484 141.178 854.188 142.481 854.188 144.089C854.188 145.697 855.484 147 857.083 147Z" fill="#327FFF"/>
<path d="M7.53856 22.524C9.13732 22.524 10.4334 21.2207 10.4334 19.613C10.4334 18.0052 9.13732 16.7019 7.53856 16.7019C5.93979 16.7019 4.64374 18.0052 4.64374 19.613C4.64374 21.2207 5.93979 22.524 7.53856 22.524Z" fill="#E5E5E5" fill-opacity="0.16"/>
<path d="M27.7427 22.524C29.3415 22.524 30.6375 21.2207 30.6375 19.613C30.6375 18.0052 29.3415 16.7019 27.7427 16.7019C26.144 16.7019 24.8479 18.0052 24.8479 19.613C24.8479 21.2207 26.144 22.524 27.7427 22.524Z" fill="#E5E5E5" fill-opacity="0.16"/>
<path d="M47.9622 22.524C49.561 22.524 50.8571 21.2207 50.8571 19.613C50.8571 18.0052 49.561 16.7019 47.9622 16.7019C46.3635 16.7019 45.0674 18.0052 45.0674 19.613C45.0674 21.2207 46.3635 22.524 47.9622 22.524Z" fill="#E5E5E5" fill-opacity="0.16"/>
<path d="M7.53892 42.843C9.13769 42.843 10.4338 41.5397 10.4338 39.932C10.4338 38.3243 9.13769 37.0209 7.53892 37.0209C5.94016 37.0209 4.6441 38.3243 4.6441 39.932C4.6441 41.5397 5.94016 42.843 7.53892 42.843Z" fill="#E5E5E5" fill-opacity="0.16"/>
<path d="M27.743 42.843C29.3417 42.843 30.6378 41.5397 30.6378 39.932C30.6378 38.3243 29.3417 37.0209 27.743 37.0209C26.1442 37.0209 24.8481 38.3243 24.8481 39.932C24.8481 41.5397 26.1442 42.843 27.743 42.843Z" fill="#E5E5E5" fill-opacity="0.16"/>
<path d="M47.9622 42.843C49.561 42.843 50.8571 41.5397 50.8571 39.932C50.8571 38.3243 49.561 37.0209 47.9622 37.0209C46.3635 37.0209 45.0674 38.3243 45.0674 39.932C45.0674 41.5397 46.3635 42.843 47.9622 42.843Z" fill="#E5E5E5" fill-opacity="0.16"/>
<path d="M7.53892 63.1774C9.13769 63.1774 10.4338 61.8741 10.4338 60.2663C10.4338 58.6586 9.13769 57.3553 7.53892 57.3553C5.94016 57.3553 4.6441 58.6586 4.6441 60.2663C4.6441 61.8741 5.94016 63.1774 7.53892 63.1774Z" fill="#E5E5E5" fill-opacity="0.16"/>
<path d="M27.743 63.1774C29.3417 63.1774 30.6378 61.8741 30.6378 60.2663C30.6378 58.6586 29.3417 57.3553 27.743 57.3553C26.1442 57.3553 24.8481 58.6586 24.8481 60.2663C24.8481 61.8741 26.1442 63.1774 27.743 63.1774Z" fill="#E5E5E5" fill-opacity="0.16"/>
<path d="M47.9622 63.1774C49.561 63.1774 50.8571 61.8741 50.8571 60.2663C50.8571 58.6586 49.561 57.3553 47.9622 57.3553C46.3635 57.3553 45.0674 58.6586 45.0674 60.2663C45.0674 61.8741 46.3635 63.1774 47.9622 63.1774Z" fill="#E5E5E5" fill-opacity="0.16"/>
<path d="M7.53892 83.496C9.13769 83.496 10.4338 82.1927 10.4338 80.5849C10.4338 78.9772 9.13769 77.6739 7.53892 77.6739C5.94016 77.6739 4.6441 78.9772 4.6441 80.5849C4.6441 82.1927 5.94016 83.496 7.53892 83.496Z" fill="#E5E5E5" fill-opacity="0.16"/>
<path d="M27.743 83.496C29.3417 83.496 30.6378 82.1927 30.6378 80.5849C30.6378 78.9772 29.3417 77.6739 27.743 77.6739C26.1442 77.6739 24.8481 78.9772 24.8481 80.5849C24.8481 82.1927 26.1442 83.496 27.743 83.496Z" fill="#E5E5E5" fill-opacity="0.16"/>
<path d="M47.9622 83.496C49.561 83.496 50.8571 82.1927 50.8571 80.5849C50.8571 78.9772 49.561 77.6739 47.9622 77.6739C46.3635 77.6739 45.0674 78.9772 45.0674 80.5849C45.0674 82.1927 46.3635 83.496 47.9622 83.496Z" fill="#E5E5E5" fill-opacity="0.16"/>
<path d="M890.507 22.5241C892.106 22.5241 893.402 21.2207 893.402 19.613C893.402 18.0053 892.106 16.702 890.507 16.702C888.908 16.702 887.612 18.0053 887.612 19.613C887.612 21.2207 888.908 22.5241 890.507 22.5241Z" fill="#E5E5E5" fill-opacity="0.16"/>
<path d="M890.507 42.8584C892.106 42.8584 893.402 41.5551 893.402 39.9474C893.402 38.3397 892.106 37.0363 890.507 37.0363C888.908 37.0363 887.612 38.3397 887.612 39.9474C887.612 41.5551 888.908 42.8584 890.507 42.8584Z" fill="#E5E5E5" fill-opacity="0.16"/>
<path d="M890.507 63.1775C892.106 63.1775 893.402 61.8742 893.402 60.2664C893.402 58.6587 892.106 57.3554 890.507 57.3554C888.908 57.3554 887.612 58.6587 887.612 60.2664C887.612 61.8742 888.908 63.1775 890.507 63.1775Z" fill="#E5E5E5" fill-opacity="0.16"/>
<path d="M890.507 83.5118C892.106 83.5118 893.402 82.2084 893.402 80.6007C893.402 78.993 892.106 77.6897 890.507 77.6897C888.908 77.6897 887.612 78.993 887.612 80.6007C887.612 82.2084 888.908 83.5118 890.507 83.5118Z" fill="#E5E5E5" fill-opacity="0.16"/>
<path d="M890.507 103.83C892.106 103.83 893.402 102.527 893.402 100.919C893.402 99.3117 892.106 98.0084 890.507 98.0084C888.908 98.0084 887.612 99.3117 887.612 100.919C887.612 102.527 888.908 103.83 890.507 103.83Z" fill="#E5E5E5" fill-opacity="0.16"/>
<path d="M890.507 124.165C892.106 124.165 893.402 122.861 893.402 121.254C893.402 119.646 892.106 118.343 890.507 118.343C888.908 118.343 887.612 119.646 887.612 121.254C887.612 122.861 888.908 124.165 890.507 124.165Z" fill="#E5E5E5" fill-opacity="0.16"/>
<path d="M890.507 144.484C892.106 144.484 893.402 143.18 893.402 141.573C893.402 139.965 892.106 138.662 890.507 138.662C888.908 138.662 887.612 139.965 887.612 141.573C887.612 143.18 888.908 144.484 890.507 144.484Z" fill="#E5E5E5" fill-opacity="0.16"/>
<path d="M870.302 22.5241C871.901 22.5241 873.197 21.2207 873.197 19.613C873.197 18.0053 871.901 16.702 870.302 16.702C868.704 16.702 867.408 18.0053 867.408 19.613C867.408 21.2207 868.704 22.5241 870.302 22.5241Z" fill="#E5E5E5" fill-opacity="0.16"/>
<path d="M870.302 42.8584C871.901 42.8584 873.197 41.5551 873.197 39.9474C873.197 38.3397 871.901 37.0363 870.302 37.0363C868.704 37.0363 867.408 38.3397 867.408 39.9474C867.408 41.5551 868.704 42.8584 870.302 42.8584Z" fill="#E5E5E5" fill-opacity="0.16"/>
<path d="M870.302 63.1775C871.901 63.1775 873.197 61.8742 873.197 60.2664C873.197 58.6587 871.901 57.3554 870.302 57.3554C868.704 57.3554 867.408 58.6587 867.408 60.2664C867.408 61.8742 868.704 63.1775 870.302 63.1775Z" fill="#E5E5E5" fill-opacity="0.16"/>
<path d="M870.302 83.5118C871.901 83.5118 873.197 82.2084 873.197 80.6007C873.197 78.993 871.901 77.6897 870.302 77.6897C868.704 77.6897 867.408 78.993 867.408 80.6007C867.408 82.2084 868.704 83.5118 870.302 83.5118Z" fill="#E5E5E5" fill-opacity="0.16"/>
<path d="M870.302 103.83C871.901 103.83 873.197 102.527 873.197 100.919C873.197 99.3117 871.901 98.0084 870.302 98.0084C868.704 98.0084 867.408 99.3117 867.408 100.919C867.408 102.527 868.704 103.83 870.302 103.83Z" fill="#E5E5E5" fill-opacity="0.16"/>
<path d="M870.302 124.165C871.901 124.165 873.197 122.861 873.197 121.254C873.197 119.646 871.901 118.343 870.302 118.343C868.704 118.343 867.408 119.646 867.408 121.254C867.408 122.861 868.704 124.165 870.302 124.165Z" fill="#E5E5E5" fill-opacity="0.16"/>
<path d="M870.302 144.484C871.901 144.484 873.197 143.18 873.197 141.573C873.197 139.965 871.901 138.662 870.302 138.662C868.704 138.662 867.408 139.965 867.408 141.573C867.408 143.18 868.704 144.484 870.302 144.484Z" fill="#E5E5E5" fill-opacity="0.16"/>
<path d="M850.084 22.525C851.682 22.525 852.978 21.2217 852.978 19.614C852.978 18.0063 851.682 16.7029 850.084 16.7029C848.485 16.7029 847.189 18.0063 847.189 19.614C847.189 21.2217 848.485 22.525 850.084 22.525Z" fill="#E5E5E5" fill-opacity="0.16"/>
<path d="M850.083 42.8584C851.682 42.8584 852.978 41.5551 852.978 39.9474C852.978 38.3397 851.682 37.0363 850.083 37.0363C848.484 37.0363 847.188 38.3397 847.188 39.9474C847.188 41.5551 848.484 42.8584 850.083 42.8584Z" fill="#E5E5E5" fill-opacity="0.16"/>
<path d="M850.083 63.1775C851.682 63.1775 852.978 61.8742 852.978 60.2664C852.978 58.6587 851.682 57.3554 850.083 57.3554C848.484 57.3554 847.188 58.6587 847.188 60.2664C847.188 61.8742 848.484 63.1775 850.083 63.1775Z" fill="#E5E5E5" fill-opacity="0.16"/>
<path d="M850.083 83.5118C851.682 83.5118 852.978 82.2084 852.978 80.6007C852.978 78.993 851.682 77.6897 850.083 77.6897C848.484 77.6897 847.188 78.993 847.188 80.6007C847.188 82.2084 848.484 83.5118 850.083 83.5118Z" fill="#E5E5E5" fill-opacity="0.16"/>
<path d="M850.083 103.83C851.682 103.83 852.978 102.527 852.978 100.919C852.978 99.3117 851.682 98.0084 850.083 98.0084C848.484 98.0084 847.188 99.3117 847.188 100.919C847.188 102.527 848.484 103.83 850.083 103.83Z" fill="#E5E5E5" fill-opacity="0.16"/>
<path d="M850.083 124.165C851.682 124.165 852.978 122.861 852.978 121.254C852.978 119.646 851.682 118.343 850.083 118.343C848.484 118.343 847.188 119.646 847.188 121.254C847.188 122.861 848.484 124.165 850.083 124.165Z" fill="#E5E5E5" fill-opacity="0.16"/>
<path d="M850.083 144.484C851.682 144.484 852.978 143.18 852.978 141.573C852.978 139.965 851.682 138.662 850.083 138.662C848.484 138.662 847.188 139.965 847.188 141.573C847.188 143.18 848.484 144.484 850.083 144.484Z" fill="#E5E5E5" fill-opacity="0.16"/>
<path d="M144.333 37.0728C137.88 33.4087 129.822 33.8013 123.762 38.1524C123.172 37.4653 122.582 36.7783 121.993 36.0586C119.405 36.0586 116.784 36.0586 114.197 36.0586C114.197 52.2852 114.197 68.5444 114.197 84.771C117.276 84.771 120.388 84.771 123.467 84.771C123.467 79.7002 123.467 74.5967 123.467 69.5259C124.417 70.1802 131.656 75.0874 140.271 72.4375C147.772 70.1475 153.243 63.0811 153.898 54.6406C154.291 47.4761 150.557 40.6387 144.333 37.0728ZM134.997 64.7822C128.806 65.2075 123.401 60.1367 123.368 54.0191C123.336 48.3921 127.823 43.5176 133.523 43.1577C139.419 42.7651 144.726 47.3125 145.086 53.332C145.447 59.2534 140.795 64.3569 134.997 64.7822Z" fill="white"/>
<path d="M158.287 35.9932C161.268 35.9932 164.249 35.9932 167.23 35.9932C167.23 48.2939 167.23 60.5947 167.23 72.8955C164.216 72.8955 161.203 72.8955 158.222 72.8955C158.222 60.5947 158.255 48.2939 158.287 35.9932Z" fill="white"/>
<path d="M202.28 37.0728C195.827 33.4087 187.769 33.8013 181.709 38.1524C181.119 37.4653 180.529 36.7783 179.94 36.0586C177.352 36.0586 174.731 36.0586 172.143 36.0586C172.143 52.2852 172.143 68.5444 172.143 84.771C175.223 84.771 178.335 84.771 181.414 84.771C181.414 79.7002 181.414 74.5967 181.414 69.5259C182.364 70.1802 189.603 75.0874 198.218 72.4375C205.719 70.1475 211.19 63.0811 211.845 54.6406C212.238 47.4761 208.536 40.6387 202.28 37.0728ZM192.977 64.7822C186.786 65.2075 181.381 60.1367 181.348 54.0191C181.315 48.3921 185.836 43.5176 191.536 43.1577C197.432 42.7651 202.738 47.3125 203.099 53.332C203.426 59.2534 198.775 64.3569 192.977 64.7822Z" fill="white"/>
<path d="M244.766 37.3999C236.904 32.5254 227.273 34.4883 221.574 39.5264C217.348 43.2558 216.038 48.0322 215.612 50.1914C215.415 51.1401 213.679 61.1509 221.279 68.2173C228.649 75.0874 238.181 72.9282 238.837 72.7646C247.812 70.5727 251.481 62.7866 251.907 61.8379C248.238 61.8379 244.536 61.8379 240.867 61.8379C240.507 62.165 237.068 65.2075 232.318 64.2915C226.88 63.2446 224.98 57.9775 224.915 57.7485C234.414 57.7812 243.914 57.7812 253.413 57.8139C255.084 49.8315 251.579 41.6528 244.766 37.3999ZM224.587 50.2568C226.094 46.2656 229.796 43.5503 233.956 43.3867C238.476 43.1904 242.702 46.102 244.241 50.4858C237.69 50.4204 231.139 50.355 224.587 50.2568Z" fill="white"/>
<path d="M276.212 18.1636C276.212 20.748 276.245 23.3652 276.245 25.9497C275.623 26.0151 271.987 26.5713 269.628 29.8428C267.728 32.4927 267.826 35.2734 267.859 36.0913C273.264 36.0913 278.702 36.0913 284.107 36.0913C288.594 44.2373 293.082 52.3833 297.57 60.5293C293.016 68.6426 288.463 76.7559 283.91 84.8691C280.503 84.8691 277.129 84.8691 273.723 84.8691C278.079 76.7231 282.436 68.6099 286.793 60.4639C283.681 54.7715 280.602 49.0791 277.49 43.3867C274.28 43.3867 271.069 43.3867 267.859 43.3867C267.859 53.2012 267.859 63.0156 267.859 72.7974C264.878 72.7974 261.93 72.7974 258.949 72.7974C258.949 62.9829 258.949 53.1685 258.949 43.3867C257.508 43.3867 256.099 43.3867 254.658 43.3867C254.658 40.9658 254.658 38.5776 254.658 36.1567C256.099 36.1567 257.541 36.1567 258.949 36.1567C258.884 34.8809 258.654 29.1885 262.847 24.1831C267.892 18.1636 275.197 18.1636 276.212 18.1636Z" fill="white"/>
<path d="M294.359 46.4946C296.096 49.7007 297.864 52.9067 299.601 56.1128C303.302 49.3735 307.036 42.6343 310.738 35.895C307.167 35.895 303.597 35.895 300.026 35.895C298.127 39.4282 296.227 42.9614 294.359 46.4946Z" fill="white"/>
<path d="M117.024 104.412V99.804H119.436C121.308 99.804 122.1 100.668 122.1 102.126C122.1 103.53 121.308 104.412 119.436 104.412H117.024ZM123.774 102.126C123.774 100.074 122.388 98.454 119.436 98.454H115.386V111H117.024V105.762H119.436C122.55 105.762 123.774 104.034 123.774 102.126ZM125.81 111H127.448V97.68H125.81V111ZM129.628 106.032C129.628 109.092 131.662 111.162 134.29 111.162C136.108 111.162 137.386 110.226 137.98 109.164V111H139.636V101.136H137.98V102.936C137.404 101.91 136.144 100.974 134.308 100.974C131.662 100.974 129.628 102.954 129.628 106.032ZM137.98 106.05C137.98 108.372 136.432 109.722 134.632 109.722C132.832 109.722 131.302 108.354 131.302 106.032C131.302 103.71 132.832 102.396 134.632 102.396C136.432 102.396 137.98 103.764 137.98 106.05ZM142.764 108.3C142.764 110.28 143.754 111 145.5 111H146.976V109.614H145.77C144.762 109.614 144.402 109.272 144.402 108.3V102.486H146.976V101.136H144.402V98.652H142.764V101.136H141.486V102.486H142.764V108.3ZM148.348 106.032C148.348 109.092 150.382 111.162 153.01 111.162C154.828 111.162 156.106 110.226 156.7 109.164V111H158.356V101.136H156.7V102.936C156.124 101.91 154.864 100.974 153.028 100.974C150.382 100.974 148.348 102.954 148.348 106.032ZM156.7 106.05C156.7 108.372 155.152 109.722 153.352 109.722C151.552 109.722 150.022 108.354 150.022 106.032C150.022 103.71 151.552 102.396 153.352 102.396C155.152 102.396 156.7 103.764 156.7 106.05ZM161.43 111H163.068V102.486H165.138V101.136H163.068V100.434C163.068 99.156 163.554 98.616 165.03 98.616V97.248C162.51 97.248 161.43 98.238 161.43 100.434V101.136H160.152V102.486H161.43V111ZM176.408 106.05C176.408 102.936 174.23 100.974 171.422 100.974C168.632 100.974 166.436 102.936 166.436 106.05C166.436 109.182 168.56 111.162 171.35 111.162C174.158 111.162 176.408 109.182 176.408 106.05ZM168.11 106.05C168.11 103.566 169.676 102.396 171.404 102.396C173.096 102.396 174.734 103.566 174.734 106.05C174.734 108.552 173.06 109.722 171.35 109.722C169.64 109.722 168.11 108.552 168.11 106.05ZM180.2 105.636C180.2 103.35 181.388 102.648 182.954 102.648H183.386V100.956C181.82 100.956 180.758 101.64 180.2 102.738V101.136H178.562V111H180.2V105.636ZM199.515 111H201.135V105.186C201.135 102.36 199.389 100.956 197.139 100.956C195.627 100.956 194.223 101.73 193.647 103.152C192.999 101.676 191.649 100.956 190.029 100.956C188.733 100.956 187.563 101.514 186.915 102.558V101.136H185.277V111H186.915V105.564C186.915 103.44 188.049 102.378 189.705 102.378C191.325 102.378 192.405 103.404 192.405 105.42V111H194.025V105.564C194.025 103.44 195.159 102.378 196.815 102.378C198.435 102.378 199.515 103.404 199.515 105.42V111ZM203.21 106.032C203.21 109.092 205.244 111.162 207.872 111.162C209.69 111.162 210.968 110.226 211.562 109.164V111H213.218V101.136H211.562V102.936C210.986 101.91 209.726 100.974 207.89 100.974C205.244 100.974 203.21 102.954 203.21 106.032ZM211.562 106.05C211.562 108.372 210.014 109.722 208.214 109.722C206.414 109.722 204.884 108.354 204.884 106.032C204.884 103.71 206.414 102.396 208.214 102.396C210.014 102.396 211.562 103.764 211.562 106.05ZM220.172 106.032C220.172 109.092 222.206 111.162 224.852 111.162C226.652 111.162 227.93 110.244 228.524 109.146V111H230.18V97.68H228.524V102.9C227.84 101.766 226.418 100.974 224.87 100.974C222.206 100.974 220.172 102.954 220.172 106.032ZM228.524 106.05C228.524 108.372 226.976 109.722 225.176 109.722C223.376 109.722 221.846 108.354 221.846 106.032C221.846 103.71 223.376 102.396 225.176 102.396C226.976 102.396 228.524 103.764 228.524 106.05ZM237.143 102.36C238.835 102.36 240.275 103.422 240.257 105.348H234.029C234.208 103.422 235.541 102.36 237.143 102.36ZM241.751 107.958H239.987C239.627 109.02 238.691 109.776 237.215 109.776C235.541 109.776 234.137 108.678 234.011 106.68H241.895C241.931 106.338 241.949 106.05 241.949 105.69C241.949 102.99 240.077 100.974 237.215 100.974C234.335 100.974 232.337 102.936 232.337 106.05C232.337 109.182 234.407 111.162 237.215 111.162C239.663 111.162 241.247 109.758 241.751 107.958ZM248.297 106.032C248.297 109.092 250.331 111.162 252.977 111.162C254.777 111.162 256.055 110.208 256.649 109.146V111.216C256.649 113.322 255.335 114.438 253.589 114.438C251.969 114.438 250.799 113.628 250.439 112.44H248.819C249.143 114.546 250.997 115.86 253.589 115.86C256.487 115.86 258.305 113.934 258.305 111.216V101.136H256.649V102.936C256.073 101.874 254.777 100.974 252.977 100.974C250.331 100.974 248.297 102.954 248.297 106.032ZM256.649 106.05C256.649 108.372 255.101 109.722 253.301 109.722C251.501 109.722 249.971 108.354 249.971 106.032C249.971 103.71 251.501 102.396 253.301 102.396C255.101 102.396 256.649 103.764 256.649 106.05ZM265.268 102.36C266.96 102.36 268.4 103.422 268.382 105.348H262.154C262.333 103.422 263.666 102.36 265.268 102.36ZM269.876 107.958H268.112C267.752 109.02 266.816 109.776 265.34 109.776C263.666 109.776 262.262 108.678 262.136 106.68H270.02C270.056 106.338 270.074 106.05 270.074 105.69C270.074 102.99 268.202 100.974 265.34 100.974C262.46 100.974 260.462 102.936 260.462 106.05C260.462 109.182 262.532 111.162 265.34 111.162C267.788 111.162 269.372 109.758 269.876 107.958ZM279.328 108.318C279.256 104.79 273.532 106.068 273.532 103.728C273.532 102.936 274.252 102.36 275.458 102.36C276.772 102.36 277.528 103.08 277.6 104.07H279.238C279.13 102.144 277.69 100.974 275.512 100.974C273.316 100.974 271.894 102.216 271.894 103.728C271.894 107.4 277.726 106.122 277.726 108.318C277.726 109.128 277.006 109.776 275.71 109.776C274.324 109.776 273.478 109.056 273.388 108.102H271.696C271.804 109.902 273.424 111.162 275.728 111.162C277.906 111.162 279.328 109.938 279.328 108.318ZM282 108.3C282 110.28 282.99 111 284.736 111H286.212V109.614H285.006C283.998 109.614 283.638 109.272 283.638 108.3V102.486H286.212V101.136H283.638V98.652H282V101.136H280.722V102.486H282V108.3ZM287.585 106.032C287.585 109.092 289.619 111.162 292.247 111.162C294.065 111.162 295.343 110.226 295.937 109.164V111H297.593V101.136H295.937V102.936C295.361 101.91 294.101 100.974 292.265 100.974C289.619 100.974 287.585 102.954 287.585 106.032ZM295.937 106.05C295.937 108.372 294.389 109.722 292.589 109.722C290.789 109.722 289.259 108.354 289.259 106.032C289.259 103.71 290.789 102.396 292.589 102.396C294.389 102.396 295.937 103.764 295.937 106.05ZM290.267 100.074H291.221C291.293 99.534 291.599 99.282 291.995 99.282C292.715 99.282 293.075 100.11 294.047 100.11C294.983 100.11 295.703 99.462 295.847 98.238H294.911C294.839 98.76 294.515 99.012 294.119 99.012C293.381 99.012 293.021 98.184 292.067 98.184C291.131 98.184 290.447 98.832 290.267 100.074ZM309.721 106.05C309.721 102.936 307.543 100.974 304.735 100.974C301.945 100.974 299.749 102.936 299.749 106.05C299.749 109.182 301.873 111.162 304.663 111.162C307.471 111.162 309.721 109.182 309.721 106.05ZM301.423 106.05C301.423 103.566 302.989 102.396 304.717 102.396C306.409 102.396 308.047 103.566 308.047 106.05C308.047 108.552 306.373 109.722 304.663 109.722C302.953 109.722 301.423 108.552 301.423 106.05ZM114.774 130.032C114.774 133.092 116.808 135.162 119.454 135.162C121.254 135.162 122.532 134.244 123.126 133.146V135H124.782V121.68H123.126V126.9C122.442 125.766 121.02 124.974 119.472 124.974C116.808 124.974 114.774 126.954 114.774 130.032ZM123.126 130.05C123.126 132.372 121.578 133.722 119.778 133.722C117.978 133.722 116.448 132.354 116.448 130.032C116.448 127.71 117.978 126.396 119.778 126.396C121.578 126.396 123.126 127.764 123.126 130.05ZM131.744 126.36C133.436 126.36 134.876 127.422 134.858 129.348H128.63C128.81 127.422 130.142 126.36 131.744 126.36ZM136.352 131.958H134.588C134.228 133.02 133.292 133.776 131.816 133.776C130.142 133.776 128.738 132.678 128.612 130.68H136.496C136.532 130.338 136.55 130.05 136.55 129.69C136.55 126.99 134.678 124.974 131.816 124.974C128.936 124.974 126.938 126.936 126.938 130.05C126.938 133.182 129.008 135.162 131.816 135.162C134.264 135.162 135.848 133.758 136.352 131.958ZM145.149 126.954V125.136H143.511V139.68H145.149V133.182C145.761 134.19 147.039 135.162 148.839 135.162C151.485 135.162 153.519 133.092 153.519 130.032C153.519 126.954 151.485 124.974 148.839 124.974C147.039 124.974 145.743 125.91 145.149 126.954ZM151.845 130.032C151.845 132.354 150.315 133.722 148.497 133.722C146.715 133.722 145.149 132.372 145.149 130.05C145.149 127.764 146.715 126.396 148.497 126.396C150.315 126.396 151.845 127.71 151.845 130.032ZM157.313 129.636C157.313 127.35 158.501 126.648 160.067 126.648H160.499V124.956C158.933 124.956 157.871 125.64 157.313 126.738V125.136H155.675V135H157.313V129.636ZM171.75 130.05C171.75 126.936 169.572 124.974 166.764 124.974C163.974 124.974 161.778 126.936 161.778 130.05C161.778 133.182 163.902 135.162 166.692 135.162C169.5 135.162 171.75 133.182 171.75 130.05ZM163.452 130.05C163.452 127.566 165.018 126.396 166.746 126.396C168.438 126.396 170.076 127.566 170.076 130.05C170.076 132.552 168.402 133.722 166.692 133.722C164.982 133.722 163.452 132.552 163.452 130.05ZM173.292 130.05C173.292 133.182 175.29 135.162 178.098 135.162C180.546 135.162 182.148 133.794 182.652 131.832H180.888C180.528 133.074 179.556 133.776 178.098 133.776C176.298 133.776 174.966 132.498 174.966 130.05C174.966 127.638 176.298 126.36 178.098 126.36C179.556 126.36 180.546 127.116 180.888 128.304H182.652C182.148 126.234 180.546 124.974 178.098 124.974C175.29 124.974 173.292 126.954 173.292 130.05ZM189.031 126.36C190.723 126.36 192.163 127.422 192.145 129.348H185.917C186.097 127.422 187.429 126.36 189.031 126.36ZM193.639 131.958H191.875C191.515 133.02 190.579 133.776 189.103 133.776C187.429 133.776 186.025 132.678 185.899 130.68H193.783C193.819 130.338 193.837 130.05 193.837 129.69C193.837 126.99 191.965 124.974 189.103 124.974C186.223 124.974 184.225 126.936 184.225 130.05C184.225 133.182 186.295 135.162 189.103 135.162C191.551 135.162 193.135 133.758 193.639 131.958ZM203.091 132.318C203.019 128.79 197.295 130.068 197.295 127.728C197.295 126.936 198.015 126.36 199.221 126.36C200.535 126.36 201.291 127.08 201.363 128.07H203.001C202.893 126.144 201.453 124.974 199.275 124.974C197.079 124.974 195.657 126.216 195.657 127.728C195.657 131.4 201.489 130.122 201.489 132.318C201.489 133.128 200.769 133.776 199.473 133.776C198.087 133.776 197.241 133.056 197.151 132.102H195.459C195.567 133.902 197.187 135.162 199.491 135.162C201.669 135.162 203.091 133.938 203.091 132.318ZM212.496 132.318C212.424 128.79 206.7 130.068 206.7 127.728C206.7 126.936 207.42 126.36 208.626 126.36C209.94 126.36 210.696 127.08 210.768 128.07H212.406C212.298 126.144 210.858 124.974 208.68 124.974C206.484 124.974 205.062 126.216 205.062 127.728C205.062 131.4 210.894 130.122 210.894 132.318C210.894 133.128 210.174 133.776 208.878 133.776C207.492 133.776 206.646 133.056 206.556 132.102H204.864C204.972 133.902 206.592 135.162 208.896 135.162C211.074 135.162 212.496 133.938 212.496 132.318ZM224.168 130.05C224.168 126.936 221.99 124.974 219.182 124.974C216.392 124.974 214.196 126.936 214.196 130.05C214.196 133.182 216.32 135.162 219.11 135.162C221.918 135.162 224.168 133.182 224.168 130.05ZM215.87 130.05C215.87 127.566 217.436 126.396 219.164 126.396C220.856 126.396 222.494 127.566 222.494 130.05C222.494 132.552 220.82 133.722 219.11 133.722C217.4 133.722 215.87 132.552 215.87 130.05ZM233.414 132.318C233.342 128.79 227.618 130.068 227.618 127.728C227.618 126.936 228.338 126.36 229.544 126.36C230.858 126.36 231.614 127.08 231.686 128.07H233.324C233.216 126.144 231.776 124.974 229.598 124.974C227.402 124.974 225.98 126.216 225.98 127.728C225.98 131.4 231.812 130.122 231.812 132.318C231.812 133.128 231.092 133.776 229.796 133.776C228.41 133.776 227.564 133.056 227.474 132.102H225.782C225.89 133.902 227.51 135.162 229.814 135.162C231.992 135.162 233.414 133.938 233.414 132.318ZM237.328 133.992C237.328 133.362 236.842 132.876 236.248 132.876C235.618 132.876 235.132 133.362 235.132 133.992C235.132 134.622 235.618 135.108 236.248 135.108C236.842 135.108 237.328 134.622 237.328 133.992Z" fill="#C2D3FF"/>
<path d="M707.965 87.7976C710.298 86.6442 711.772 84.2766 711.649 81.7268C711.526 79.4199 710.114 77.2951 707.965 76.2631C710.237 75.0489 711.711 72.6813 711.649 70.1922C711.588 66.7926 708.825 64.9106 708.579 64.7285C707.965 65.5177 707.351 66.3676 706.737 67.1568C707.965 68.2496 708.395 69.8887 707.965 71.4064C707.351 73.4098 705.386 74.0776 705.202 74.1383C705.079 74.0776 702.991 73.4098 702.439 71.4064C702.009 69.7066 702.868 67.7639 704.588 66.8533C703.974 66.0641 703.36 65.2142 702.746 64.425C702.5 64.6071 699.491 66.489 699.368 70.1922C699.246 73.9562 702.254 76.1417 702.439 76.2631C702.132 76.4452 699.491 78.3272 699.368 81.7268C699.184 85.4907 702.254 87.6762 702.439 87.7976C700.228 89.3153 699 91.9258 699.368 94.4755C699.737 97.4503 702.07 99.0894 702.439 99.3322C703.053 98.543 703.667 97.6931 704.281 96.9039C704.219 96.8432 702.254 95.5076 702.439 93.2614C702.561 91.5616 703.789 90.1046 705.509 89.6189C707.535 90.226 708.825 92.0472 708.579 93.8685C708.333 95.9325 706.184 96.8432 706.123 96.9039C706.737 97.6931 707.351 98.543 707.965 99.3322C710.114 98.3002 711.526 96.1754 711.649 93.8685C711.772 91.3187 710.298 88.8904 707.965 87.7976ZM705.509 85.9764C703.912 85.1265 702.93 83.4874 703.053 81.7268C703.237 79.2985 705.386 78.145 705.509 78.0843C707.105 78.9342 708.088 80.5734 707.965 82.3339C707.781 84.7622 705.632 85.9157 705.509 85.9764Z" fill="white" fill-opacity="0.35"/>
<path d="M723.009 88.0405C725.342 86.887 726.816 84.5194 726.693 81.9696C726.57 79.6627 725.158 77.5379 723.009 76.5059C725.281 75.2917 726.754 72.9241 726.693 70.4351C726.632 67.0354 723.868 65.1535 723.623 64.9713C723.009 65.7605 722.395 66.6105 721.781 67.3997C723.009 68.4924 723.439 70.1315 723.009 71.6492C722.395 73.6526 720.43 74.3204 720.246 74.3811C720.123 74.3204 718.035 73.6526 717.482 71.6492C717.053 69.9494 717.912 68.0674 719.632 67.0961C719.018 66.3069 718.404 65.457 717.789 64.6678C717.544 64.8499 714.535 66.7319 714.412 70.4351C714.289 74.199 717.298 76.3845 717.482 76.5059C717.175 76.688 714.535 78.57 714.412 81.9696C714.228 85.7336 717.298 87.9191 717.482 88.0405C715.272 89.6189 714.105 92.1686 714.412 94.7184C714.781 97.6931 717.114 99.3322 717.482 99.575C718.097 98.7858 718.711 97.9359 719.325 97.1467C719.263 97.086 717.298 95.7504 717.482 93.5042C717.605 91.8044 718.833 90.3474 720.553 89.8617C722.579 90.4688 723.868 92.29 723.623 94.1113C723.377 96.1754 721.228 97.086 721.167 97.1467C721.781 97.9359 722.395 98.7858 723.009 99.575C725.158 98.543 726.57 96.4182 726.693 94.1113C726.816 91.5615 725.342 89.1939 723.009 88.0405ZM720.553 86.2192C718.956 85.3693 717.974 83.7302 718.097 81.9696C718.281 79.5413 720.43 78.3879 720.553 78.3271C722.149 79.1771 723.132 80.8162 723.009 82.5767C722.825 85.0051 720.675 86.1585 720.553 86.2192Z" fill="white"/>
<path d="M736.988 66.454V74.392C736.988 75.508 737.258 76.336 737.798 76.876C738.35 77.416 739.112 77.686 740.084 77.686C741.044 77.686 741.794 77.416 742.334 76.876C742.886 76.336 743.162 75.508 743.162 74.392V66.454H744.8V74.374C744.8 75.418 744.59 76.3 744.17 77.02C743.75 77.728 743.18 78.256 742.46 78.604C741.752 78.952 740.954 79.126 740.066 79.126C739.178 79.126 738.374 78.952 737.654 78.604C736.946 78.256 736.382 77.728 735.962 77.02C735.554 76.3 735.35 75.418 735.35 74.374V66.454H736.988ZM749.17 66.454V79H747.532V66.454H749.17Z" fill="white" fill-opacity="0.35"/>
<path d="M734.774 92.718C734.774 91.494 735.05 90.396 735.602 89.424C736.154 88.44 736.904 87.672 737.852 87.12C738.812 86.568 739.874 86.292 741.038 86.292C742.406 86.292 743.6 86.622 744.62 87.282C745.64 87.942 746.384 88.878 746.852 90.09H744.89C744.542 89.334 744.038 88.752 743.378 88.344C742.73 87.936 741.95 87.732 741.038 87.732C740.162 87.732 739.376 87.936 738.68 88.344C737.984 88.752 737.438 89.334 737.042 90.09C736.646 90.834 736.448 91.71 736.448 92.718C736.448 93.714 736.646 94.59 737.042 95.346C737.438 96.09 737.984 96.666 738.68 97.074C739.376 97.482 740.162 97.686 741.038 97.686C741.95 97.686 742.73 97.488 743.378 97.092C744.038 96.684 744.542 96.102 744.89 95.346H746.852C746.384 96.546 745.64 97.476 744.62 98.136C743.6 98.784 742.406 99.108 741.038 99.108C739.874 99.108 738.812 98.838 737.852 98.298C736.904 97.746 736.154 96.984 735.602 96.012C735.05 95.04 734.774 93.942 734.774 92.718ZM750.928 85.68V99H749.29V85.68H750.928ZM758.022 99.162C757.098 99.162 756.258 98.952 755.502 98.532C754.758 98.112 754.17 97.518 753.738 96.75C753.318 95.97 753.108 95.07 753.108 94.05C753.108 93.042 753.324 92.154 753.756 91.386C754.2 90.606 754.8 90.012 755.556 89.604C756.312 89.184 757.158 88.974 758.094 88.974C759.03 88.974 759.876 89.184 760.632 89.604C761.388 90.012 761.982 90.6 762.414 91.368C762.858 92.136 763.08 93.03 763.08 94.05C763.08 95.07 762.852 95.97 762.396 96.75C761.952 97.518 761.346 98.112 760.578 98.532C759.81 98.952 758.958 99.162 758.022 99.162ZM758.022 97.722C758.61 97.722 759.162 97.584 759.678 97.308C760.194 97.032 760.608 96.618 760.92 96.066C761.244 95.514 761.406 94.842 761.406 94.05C761.406 93.258 761.25 92.586 760.938 92.034C760.626 91.482 760.218 91.074 759.714 90.81C759.21 90.534 758.664 90.396 758.076 90.396C757.476 90.396 756.924 90.534 756.42 90.81C755.928 91.074 755.532 91.482 755.232 92.034C754.932 92.586 754.782 93.258 754.782 94.05C754.782 94.854 754.926 95.532 755.214 96.084C755.514 96.636 755.91 97.05 756.402 97.326C756.894 97.59 757.434 97.722 758.022 97.722ZM770.04 88.956C771.24 88.956 772.212 89.322 772.956 90.054C773.7 90.774 774.072 91.818 774.072 93.186V99H772.452V93.42C772.452 92.436 772.206 91.686 771.714 91.17C771.222 90.642 770.55 90.378 769.698 90.378C768.834 90.378 768.144 90.648 767.628 91.188C767.124 91.728 766.872 92.514 766.872 93.546V99H765.234V89.136H766.872V90.54C767.196 90.036 767.634 89.646 768.186 89.37C768.75 89.094 769.368 88.956 770.04 88.956ZM785.747 93.69C785.747 94.002 785.729 94.332 785.693 94.68H777.809C777.869 95.652 778.199 96.414 778.799 96.966C779.411 97.506 780.149 97.776 781.013 97.776C781.721 97.776 782.309 97.614 782.777 97.29C783.257 96.954 783.593 96.51 783.785 95.958H785.549C785.285 96.906 784.757 97.68 783.965 98.28C783.173 98.868 782.189 99.162 781.013 99.162C780.077 99.162 779.237 98.952 778.493 98.532C777.761 98.112 777.185 97.518 776.765 96.75C776.345 95.97 776.135 95.07 776.135 94.05C776.135 93.03 776.339 92.136 776.747 91.368C777.155 90.6 777.725 90.012 778.457 89.604C779.201 89.184 780.053 88.974 781.013 88.974C781.949 88.974 782.777 89.178 783.497 89.586C784.217 89.994 784.769 90.558 785.153 91.278C785.549 91.986 785.747 92.79 785.747 93.69ZM784.055 93.348C784.055 92.724 783.917 92.19 783.641 91.746C783.365 91.29 782.987 90.948 782.507 90.72C782.039 90.48 781.517 90.36 780.941 90.36C780.113 90.36 779.405 90.624 778.817 91.152C778.241 91.68 777.911 92.412 777.827 93.348H784.055Z" fill="white"/>
</g>
<defs>
<clipPath id="clip0">
<rect width="900" height="160" rx="4" fill="white"/>
</clipPath>
</defs>
</svg>
