<svg width="900" height="160" viewBox="0 0 900 160" fill="none" xmlns="http://www.w3.org/2000/svg">
<g clip-path="url(#clip0)">
<rect width="900" height="160" rx="4" fill="white"/>
<rect width="900" height="160" rx="4" fill="#327FFF"/>
<path d="M629 21.2309L638.3 30.5834" stroke="#0B66FF" stroke-width="2" stroke-miterlimit="10" stroke-linecap="round" stroke-linejoin="round"/>
<path d="M638.3 21.2309L629 30.5834" stroke="#0B66FF" stroke-width="2" stroke-miterlimit="10" stroke-linecap="round" stroke-linejoin="round"/>
<path d="M81.5749 132.445V145.671" stroke="#0B66FF" stroke-width="2" stroke-miterlimit="10" stroke-linecap="round" stroke-linejoin="round"/>
<path d="M88.1675 139.056H75" stroke="#0B66FF" stroke-width="2" stroke-miterlimit="10" stroke-linecap="round" stroke-linejoin="round"/>
<path d="M510.986 128.443C510.986 132.872 507.413 136.481 502.993 136.481C498.588 136.481 495 132.888 495 128.443C495 124.014 498.573 120.405 502.993 120.405C507.413 120.421 510.986 124.014 510.986 128.443Z" stroke="#0B66FF" stroke-width="2" stroke-miterlimit="10" stroke-linecap="round" stroke-linejoin="round"/>
<path d="M14.5386 25.0401C16.1373 25.0401 17.4334 23.7368 17.4334 22.1291C17.4334 20.5214 16.1373 19.218 14.5386 19.218C12.9398 19.218 11.6437 20.5214 11.6437 22.1291C11.6437 23.7368 12.9398 25.0401 14.5386 25.0401Z" fill="#327FFF"/>
<path d="M34.7427 25.0401C36.3415 25.0401 37.6375 23.7368 37.6375 22.1291C37.6375 20.5214 36.3415 19.218 34.7427 19.218C33.144 19.218 31.8479 20.5214 31.8479 22.1291C31.8479 23.7368 33.144 25.0401 34.7427 25.0401Z" fill="#327FFF"/>
<path d="M54.9622 25.0401C56.561 25.0401 57.8571 23.7368 57.8571 22.1291C57.8571 20.5214 56.561 19.218 54.9622 19.218C53.3635 19.218 52.0674 20.5214 52.0674 22.1291C52.0674 23.7368 53.3635 25.0401 54.9622 25.0401Z" fill="#327FFF"/>
<path d="M14.5389 45.3592C16.1377 45.3592 17.4338 44.0558 17.4338 42.4481C17.4338 40.8404 16.1377 39.5371 14.5389 39.5371C12.9402 39.5371 11.6441 40.8404 11.6441 42.4481C11.6441 44.0558 12.9402 45.3592 14.5389 45.3592Z" fill="#327FFF"/>
<path d="M34.743 45.3592C36.3417 45.3592 37.6378 44.0558 37.6378 42.4481C37.6378 40.8404 36.3417 39.5371 34.743 39.5371C33.1442 39.5371 31.8481 40.8404 31.8481 42.4481C31.8481 44.0558 33.1442 45.3592 34.743 45.3592Z" fill="#327FFF"/>
<path d="M54.9622 45.3592C56.561 45.3592 57.8571 44.0558 57.8571 42.4481C57.8571 40.8404 56.561 39.5371 54.9622 39.5371C53.3635 39.5371 52.0674 40.8404 52.0674 42.4481C52.0674 44.0558 53.3635 45.3592 54.9622 45.3592Z" fill="#327FFF"/>
<path d="M14.5389 65.6935C16.1377 65.6935 17.4338 64.3902 17.4338 62.7825C17.4338 61.1748 16.1377 59.8714 14.5389 59.8714C12.9402 59.8714 11.6441 61.1748 11.6441 62.7825C11.6441 64.3902 12.9402 65.6935 14.5389 65.6935Z" fill="#327FFF"/>
<path d="M34.743 65.6935C36.3417 65.6935 37.6378 64.3902 37.6378 62.7825C37.6378 61.1748 36.3417 59.8714 34.743 59.8714C33.1442 59.8714 31.8481 61.1748 31.8481 62.7825C31.8481 64.3902 33.1442 65.6935 34.743 65.6935Z" fill="#327FFF"/>
<path d="M54.9622 65.6935C56.561 65.6935 57.8571 64.3902 57.8571 62.7825C57.8571 61.1748 56.561 59.8714 54.9622 59.8714C53.3635 59.8714 52.0674 61.1748 52.0674 62.7825C52.0674 64.3902 53.3635 65.6935 54.9622 65.6935Z" fill="#327FFF"/>
<path d="M14.5389 86.0121C16.1377 86.0121 17.4338 84.7088 17.4338 83.1011C17.4338 81.4934 16.1377 80.19 14.5389 80.19C12.9402 80.19 11.6441 81.4934 11.6441 83.1011C11.6441 84.7088 12.9402 86.0121 14.5389 86.0121Z" fill="#327FFF"/>
<path d="M34.743 86.0121C36.3417 86.0121 37.6378 84.7088 37.6378 83.1011C37.6378 81.4934 36.3417 80.19 34.743 80.19C33.1442 80.19 31.8481 81.4934 31.8481 83.1011C31.8481 84.7088 33.1442 86.0121 34.743 86.0121Z" fill="#327FFF"/>
<path d="M54.9622 86.0121C56.561 86.0121 57.8571 84.7088 57.8571 83.1011C57.8571 81.4934 56.561 80.19 54.9622 80.19C53.3635 80.19 52.0674 81.4934 52.0674 83.1011C52.0674 84.7088 53.3635 86.0121 54.9622 86.0121Z" fill="#327FFF"/>
<path d="M897.507 25.0402C899.106 25.0402 900.402 23.7369 900.402 22.1291C900.402 20.5214 899.106 19.2181 897.507 19.2181C895.908 19.2181 894.612 20.5214 894.612 22.1291C894.612 23.7369 895.908 25.0402 897.507 25.0402Z" fill="#327FFF"/>
<path d="M897.507 45.3745C899.106 45.3745 900.402 44.0712 900.402 42.4635C900.402 40.8558 899.106 39.5525 897.507 39.5525C895.908 39.5525 894.612 40.8558 894.612 42.4635C894.612 44.0712 895.908 45.3745 897.507 45.3745Z" fill="#327FFF"/>
<path d="M897.507 65.6936C899.106 65.6936 900.402 64.3903 900.402 62.7826C900.402 61.1748 899.106 59.8715 897.507 59.8715C895.908 59.8715 894.612 61.1748 894.612 62.7826C894.612 64.3903 895.908 65.6936 897.507 65.6936Z" fill="#327FFF"/>
<path d="M897.507 86.0279C899.106 86.0279 900.402 84.7246 900.402 83.1169C900.402 81.5092 899.106 80.2058 897.507 80.2058C895.908 80.2058 894.612 81.5092 894.612 83.1169C894.612 84.7246 895.908 86.0279 897.507 86.0279Z" fill="#327FFF"/>
<path d="M897.507 106.347C899.106 106.347 900.402 105.043 900.402 103.436C900.402 101.828 899.106 100.525 897.507 100.525C895.908 100.525 894.612 101.828 894.612 103.436C894.612 105.043 895.908 106.347 897.507 106.347Z" fill="#327FFF"/>
<path d="M897.507 126.681C899.106 126.681 900.402 125.378 900.402 123.77C900.402 122.162 899.106 120.859 897.507 120.859C895.908 120.859 894.612 122.162 894.612 123.77C894.612 125.378 895.908 126.681 897.507 126.681Z" fill="#327FFF"/>
<path d="M897.507 147C899.106 147 900.402 145.697 900.402 144.089C900.402 142.481 899.106 141.178 897.507 141.178C895.908 141.178 894.612 142.481 894.612 144.089C894.612 145.697 895.908 147 897.507 147Z" fill="#327FFF"/>
<path d="M877.302 25.0402C878.901 25.0402 880.197 23.7369 880.197 22.1291C880.197 20.5214 878.901 19.2181 877.302 19.2181C875.704 19.2181 874.408 20.5214 874.408 22.1291C874.408 23.7369 875.704 25.0402 877.302 25.0402Z" fill="#327FFF"/>
<path d="M877.302 45.3745C878.901 45.3745 880.197 44.0712 880.197 42.4635C880.197 40.8558 878.901 39.5525 877.302 39.5525C875.704 39.5525 874.408 40.8558 874.408 42.4635C874.408 44.0712 875.704 45.3745 877.302 45.3745Z" fill="#327FFF"/>
<path d="M877.302 65.6936C878.901 65.6936 880.197 64.3903 880.197 62.7826C880.197 61.1748 878.901 59.8715 877.302 59.8715C875.704 59.8715 874.408 61.1748 874.408 62.7826C874.408 64.3903 875.704 65.6936 877.302 65.6936Z" fill="#327FFF"/>
<path d="M877.302 86.0279C878.901 86.0279 880.197 84.7246 880.197 83.1169C880.197 81.5092 878.901 80.2058 877.302 80.2058C875.704 80.2058 874.408 81.5092 874.408 83.1169C874.408 84.7246 875.704 86.0279 877.302 86.0279Z" fill="#327FFF"/>
<path d="M877.302 106.347C878.901 106.347 880.197 105.043 880.197 103.436C880.197 101.828 878.901 100.525 877.302 100.525C875.704 100.525 874.408 101.828 874.408 103.436C874.408 105.043 875.704 106.347 877.302 106.347Z" fill="#327FFF"/>
<path d="M877.302 126.681C878.901 126.681 880.197 125.378 880.197 123.77C880.197 122.162 878.901 120.859 877.302 120.859C875.704 120.859 874.408 122.162 874.408 123.77C874.408 125.378 875.704 126.681 877.302 126.681Z" fill="#327FFF"/>
<path d="M877.302 147C878.901 147 880.197 145.697 880.197 144.089C880.197 142.481 878.901 141.178 877.302 141.178C875.704 141.178 874.408 142.481 874.408 144.089C874.408 145.697 875.704 147 877.302 147Z" fill="#327FFF"/>
<path d="M857.084 25.0412C858.682 25.0412 859.978 23.7378 859.978 22.1301C859.978 20.5224 858.682 19.2191 857.084 19.2191C855.485 19.2191 854.189 20.5224 854.189 22.1301C854.189 23.7378 855.485 25.0412 857.084 25.0412Z" fill="#327FFF"/>
<path d="M857.083 45.3745C858.682 45.3745 859.978 44.0712 859.978 42.4635C859.978 40.8558 858.682 39.5525 857.083 39.5525C855.484 39.5525 854.188 40.8558 854.188 42.4635C854.188 44.0712 855.484 45.3745 857.083 45.3745Z" fill="#327FFF"/>
<path d="M857.083 65.6936C858.682 65.6936 859.978 64.3903 859.978 62.7826C859.978 61.1748 858.682 59.8715 857.083 59.8715C855.484 59.8715 854.188 61.1748 854.188 62.7826C854.188 64.3903 855.484 65.6936 857.083 65.6936Z" fill="#327FFF"/>
<path d="M857.083 86.0279C858.682 86.0279 859.978 84.7246 859.978 83.1169C859.978 81.5091 858.682 80.2058 857.083 80.2058C855.484 80.2058 854.188 81.5091 854.188 83.1169C854.188 84.7246 855.484 86.0279 857.083 86.0279Z" fill="#327FFF"/>
<path d="M857.083 106.347C858.682 106.347 859.978 105.043 859.978 103.436C859.978 101.828 858.682 100.525 857.083 100.525C855.484 100.525 854.188 101.828 854.188 103.436C854.188 105.043 855.484 106.347 857.083 106.347Z" fill="#327FFF"/>
<path d="M857.083 126.681C858.682 126.681 859.978 125.378 859.978 123.77C859.978 122.162 858.682 120.859 857.083 120.859C855.484 120.859 854.188 122.162 854.188 123.77C854.188 125.378 855.484 126.681 857.083 126.681Z" fill="#327FFF"/>
<path d="M857.083 147C858.682 147 859.978 145.697 859.978 144.089C859.978 142.481 858.682 141.178 857.083 141.178C855.484 141.178 854.188 142.481 854.188 144.089C854.188 145.697 855.484 147 857.083 147Z" fill="#327FFF"/>
<path d="M7.53856 22.524C9.13732 22.524 10.4334 21.2207 10.4334 19.613C10.4334 18.0052 9.13732 16.7019 7.53856 16.7019C5.93979 16.7019 4.64374 18.0052 4.64374 19.613C4.64374 21.2207 5.93979 22.524 7.53856 22.524Z" fill="#E5E5E5" fill-opacity="0.16"/>
<path d="M27.7427 22.524C29.3415 22.524 30.6375 21.2207 30.6375 19.613C30.6375 18.0052 29.3415 16.7019 27.7427 16.7019C26.144 16.7019 24.8479 18.0052 24.8479 19.613C24.8479 21.2207 26.144 22.524 27.7427 22.524Z" fill="#E5E5E5" fill-opacity="0.16"/>
<path d="M47.9622 22.524C49.561 22.524 50.8571 21.2207 50.8571 19.613C50.8571 18.0052 49.561 16.7019 47.9622 16.7019C46.3635 16.7019 45.0674 18.0052 45.0674 19.613C45.0674 21.2207 46.3635 22.524 47.9622 22.524Z" fill="#E5E5E5" fill-opacity="0.16"/>
<path d="M7.53892 42.843C9.13769 42.843 10.4338 41.5397 10.4338 39.932C10.4338 38.3243 9.13769 37.021 7.53892 37.021C5.94016 37.021 4.6441 38.3243 4.6441 39.932C4.6441 41.5397 5.94016 42.843 7.53892 42.843Z" fill="#E5E5E5" fill-opacity="0.16"/>
<path d="M27.743 42.843C29.3417 42.843 30.6378 41.5397 30.6378 39.932C30.6378 38.3243 29.3417 37.021 27.743 37.021C26.1442 37.021 24.8481 38.3243 24.8481 39.932C24.8481 41.5397 26.1442 42.843 27.743 42.843Z" fill="#E5E5E5" fill-opacity="0.16"/>
<path d="M47.9622 42.843C49.561 42.843 50.8571 41.5397 50.8571 39.932C50.8571 38.3243 49.561 37.021 47.9622 37.021C46.3635 37.021 45.0674 38.3243 45.0674 39.932C45.0674 41.5397 46.3635 42.843 47.9622 42.843Z" fill="#E5E5E5" fill-opacity="0.16"/>
<path d="M7.53892 63.1774C9.13769 63.1774 10.4338 61.8741 10.4338 60.2664C10.4338 58.6586 9.13769 57.3553 7.53892 57.3553C5.94016 57.3553 4.6441 58.6586 4.6441 60.2664C4.6441 61.8741 5.94016 63.1774 7.53892 63.1774Z" fill="#E5E5E5" fill-opacity="0.16"/>
<path d="M27.743 63.1774C29.3417 63.1774 30.6378 61.8741 30.6378 60.2664C30.6378 58.6586 29.3417 57.3553 27.743 57.3553C26.1442 57.3553 24.8481 58.6586 24.8481 60.2664C24.8481 61.8741 26.1442 63.1774 27.743 63.1774Z" fill="#E5E5E5" fill-opacity="0.16"/>
<path d="M47.9622 63.1774C49.561 63.1774 50.8571 61.8741 50.8571 60.2664C50.8571 58.6586 49.561 57.3553 47.9622 57.3553C46.3635 57.3553 45.0674 58.6586 45.0674 60.2664C45.0674 61.8741 46.3635 63.1774 47.9622 63.1774Z" fill="#E5E5E5" fill-opacity="0.16"/>
<path d="M7.53892 83.496C9.13769 83.496 10.4338 82.1927 10.4338 80.585C10.4338 78.9772 9.13769 77.6739 7.53892 77.6739C5.94016 77.6739 4.6441 78.9772 4.6441 80.585C4.6441 82.1927 5.94016 83.496 7.53892 83.496Z" fill="#E5E5E5" fill-opacity="0.16"/>
<path d="M27.743 83.496C29.3417 83.496 30.6378 82.1927 30.6378 80.585C30.6378 78.9772 29.3417 77.6739 27.743 77.6739C26.1442 77.6739 24.8481 78.9772 24.8481 80.585C24.8481 82.1927 26.1442 83.496 27.743 83.496Z" fill="#E5E5E5" fill-opacity="0.16"/>
<path d="M47.9622 83.496C49.561 83.496 50.8571 82.1927 50.8571 80.585C50.8571 78.9772 49.561 77.6739 47.9622 77.6739C46.3635 77.6739 45.0674 78.9772 45.0674 80.585C45.0674 82.1927 46.3635 83.496 47.9622 83.496Z" fill="#E5E5E5" fill-opacity="0.16"/>
<path d="M890.507 22.5241C892.106 22.5241 893.402 21.2207 893.402 19.613C893.402 18.0053 892.106 16.702 890.507 16.702C888.908 16.702 887.612 18.0053 887.612 19.613C887.612 21.2207 888.908 22.5241 890.507 22.5241Z" fill="#E5E5E5" fill-opacity="0.16"/>
<path d="M890.507 42.8584C892.106 42.8584 893.402 41.5551 893.402 39.9474C893.402 38.3397 892.106 37.0363 890.507 37.0363C888.908 37.0363 887.612 38.3397 887.612 39.9474C887.612 41.5551 888.908 42.8584 890.507 42.8584Z" fill="#E5E5E5" fill-opacity="0.16"/>
<path d="M890.507 63.1775C892.106 63.1775 893.402 61.8742 893.402 60.2664C893.402 58.6587 892.106 57.3554 890.507 57.3554C888.908 57.3554 887.612 58.6587 887.612 60.2664C887.612 61.8742 888.908 63.1775 890.507 63.1775Z" fill="#E5E5E5" fill-opacity="0.16"/>
<path d="M890.507 83.5118C892.106 83.5118 893.402 82.2085 893.402 80.6007C893.402 78.993 892.106 77.6897 890.507 77.6897C888.908 77.6897 887.612 78.993 887.612 80.6007C887.612 82.2085 888.908 83.5118 890.507 83.5118Z" fill="#E5E5E5" fill-opacity="0.16"/>
<path d="M890.507 103.83C892.106 103.83 893.402 102.527 893.402 100.919C893.402 99.3117 892.106 98.0084 890.507 98.0084C888.908 98.0084 887.612 99.3117 887.612 100.919C887.612 102.527 888.908 103.83 890.507 103.83Z" fill="#E5E5E5" fill-opacity="0.16"/>
<path d="M890.507 124.165C892.106 124.165 893.402 122.861 893.402 121.254C893.402 119.646 892.106 118.343 890.507 118.343C888.908 118.343 887.612 119.646 887.612 121.254C887.612 122.861 888.908 124.165 890.507 124.165Z" fill="#E5E5E5" fill-opacity="0.16"/>
<path d="M890.507 144.484C892.106 144.484 893.402 143.18 893.402 141.573C893.402 139.965 892.106 138.662 890.507 138.662C888.908 138.662 887.612 139.965 887.612 141.573C887.612 143.18 888.908 144.484 890.507 144.484Z" fill="#E5E5E5" fill-opacity="0.16"/>
<path d="M870.302 22.5241C871.901 22.5241 873.197 21.2207 873.197 19.613C873.197 18.0053 871.901 16.702 870.302 16.702C868.704 16.702 867.408 18.0053 867.408 19.613C867.408 21.2207 868.704 22.5241 870.302 22.5241Z" fill="#E5E5E5" fill-opacity="0.16"/>
<path d="M870.302 42.8584C871.901 42.8584 873.197 41.5551 873.197 39.9474C873.197 38.3397 871.901 37.0363 870.302 37.0363C868.704 37.0363 867.408 38.3397 867.408 39.9474C867.408 41.5551 868.704 42.8584 870.302 42.8584Z" fill="#E5E5E5" fill-opacity="0.16"/>
<path d="M870.302 63.1775C871.901 63.1775 873.197 61.8742 873.197 60.2664C873.197 58.6587 871.901 57.3554 870.302 57.3554C868.704 57.3554 867.408 58.6587 867.408 60.2664C867.408 61.8742 868.704 63.1775 870.302 63.1775Z" fill="#E5E5E5" fill-opacity="0.16"/>
<path d="M870.302 83.5118C871.901 83.5118 873.197 82.2085 873.197 80.6007C873.197 78.993 871.901 77.6897 870.302 77.6897C868.704 77.6897 867.408 78.993 867.408 80.6007C867.408 82.2085 868.704 83.5118 870.302 83.5118Z" fill="#E5E5E5" fill-opacity="0.16"/>
<path d="M870.302 103.83C871.901 103.83 873.197 102.527 873.197 100.919C873.197 99.3117 871.901 98.0084 870.302 98.0084C868.704 98.0084 867.408 99.3117 867.408 100.919C867.408 102.527 868.704 103.83 870.302 103.83Z" fill="#E5E5E5" fill-opacity="0.16"/>
<path d="M870.302 124.165C871.901 124.165 873.197 122.861 873.197 121.254C873.197 119.646 871.901 118.343 870.302 118.343C868.704 118.343 867.408 119.646 867.408 121.254C867.408 122.861 868.704 124.165 870.302 124.165Z" fill="#E5E5E5" fill-opacity="0.16"/>
<path d="M870.302 144.484C871.901 144.484 873.197 143.18 873.197 141.573C873.197 139.965 871.901 138.662 870.302 138.662C868.704 138.662 867.408 139.965 867.408 141.573C867.408 143.18 868.704 144.484 870.302 144.484Z" fill="#E5E5E5" fill-opacity="0.16"/>
<path d="M850.084 22.525C851.682 22.525 852.978 21.2217 852.978 19.614C852.978 18.0063 851.682 16.7029 850.084 16.7029C848.485 16.7029 847.189 18.0063 847.189 19.614C847.189 21.2217 848.485 22.525 850.084 22.525Z" fill="#E5E5E5" fill-opacity="0.16"/>
<path d="M850.083 42.8584C851.682 42.8584 852.978 41.5551 852.978 39.9474C852.978 38.3397 851.682 37.0363 850.083 37.0363C848.484 37.0363 847.188 38.3397 847.188 39.9474C847.188 41.5551 848.484 42.8584 850.083 42.8584Z" fill="#E5E5E5" fill-opacity="0.16"/>
<path d="M850.083 63.1775C851.682 63.1775 852.978 61.8742 852.978 60.2664C852.978 58.6587 851.682 57.3554 850.083 57.3554C848.484 57.3554 847.188 58.6587 847.188 60.2664C847.188 61.8742 848.484 63.1775 850.083 63.1775Z" fill="#E5E5E5" fill-opacity="0.16"/>
<path d="M850.083 83.5118C851.682 83.5118 852.978 82.2084 852.978 80.6007C852.978 78.993 851.682 77.6897 850.083 77.6897C848.484 77.6897 847.188 78.993 847.188 80.6007C847.188 82.2084 848.484 83.5118 850.083 83.5118Z" fill="#E5E5E5" fill-opacity="0.16"/>
<path d="M850.083 103.83C851.682 103.83 852.978 102.527 852.978 100.919C852.978 99.3117 851.682 98.0084 850.083 98.0084C848.484 98.0084 847.188 99.3117 847.188 100.919C847.188 102.527 848.484 103.83 850.083 103.83Z" fill="#E5E5E5" fill-opacity="0.16"/>
<path d="M850.083 124.165C851.682 124.165 852.978 122.861 852.978 121.254C852.978 119.646 851.682 118.343 850.083 118.343C848.484 118.343 847.188 119.646 847.188 121.254C847.188 122.861 848.484 124.165 850.083 124.165Z" fill="#E5E5E5" fill-opacity="0.16"/>
<path d="M850.083 144.484C851.682 144.484 852.978 143.18 852.978 141.573C852.978 139.965 851.682 138.662 850.083 138.662C848.484 138.662 847.188 139.965 847.188 141.573C847.188 143.18 848.484 144.484 850.083 144.484Z" fill="#E5E5E5" fill-opacity="0.16"/>
<path d="M144.333 37.0727C137.88 33.4087 129.822 33.8013 123.762 38.1523C123.172 37.4653 122.582 36.7783 121.993 36.0586C119.405 36.0586 116.784 36.0586 114.197 36.0586C114.197 52.2852 114.197 68.5444 114.197 84.771C117.276 84.771 120.388 84.771 123.467 84.771C123.467 79.7002 123.467 74.5967 123.467 69.5259C124.417 70.1802 131.656 75.0874 140.271 72.4375C147.772 70.1475 153.243 63.0811 153.898 54.6406C154.291 47.4761 150.557 40.6387 144.333 37.0727ZM134.997 64.7822C128.806 65.2075 123.401 60.1367 123.368 54.019C123.336 48.3921 127.823 43.5176 133.523 43.1577C139.419 42.7651 144.726 47.3125 145.086 53.332C145.447 59.2534 140.795 64.3569 134.997 64.7822Z" fill="white"/>
<path d="M158.287 35.9932C161.268 35.9932 164.249 35.9932 167.23 35.9932C167.23 48.2939 167.23 60.5947 167.23 72.8955C164.216 72.8955 161.203 72.8955 158.222 72.8955C158.222 60.5947 158.255 48.2939 158.287 35.9932Z" fill="white"/>
<path d="M202.28 37.0727C195.827 33.4087 187.769 33.8013 181.709 38.1523C181.119 37.4653 180.529 36.7783 179.94 36.0586C177.352 36.0586 174.731 36.0586 172.143 36.0586C172.143 52.2852 172.143 68.5444 172.143 84.771C175.223 84.771 178.335 84.771 181.414 84.771C181.414 79.7002 181.414 74.5967 181.414 69.5259C182.364 70.1802 189.603 75.0874 198.218 72.4375C205.719 70.1475 211.19 63.0811 211.845 54.6406C212.238 47.4761 208.536 40.6387 202.28 37.0727ZM192.977 64.7822C186.786 65.2075 181.381 60.1367 181.348 54.019C181.315 48.3921 185.836 43.5176 191.536 43.1577C197.432 42.7651 202.738 47.3125 203.099 53.332C203.426 59.2534 198.775 64.3569 192.977 64.7822Z" fill="white"/>
<path d="M244.766 37.3999C236.904 32.5254 227.273 34.4883 221.574 39.5264C217.348 43.2558 216.038 48.0322 215.612 50.1914C215.415 51.1401 213.679 61.1509 221.279 68.2173C228.649 75.0874 238.181 72.9282 238.837 72.7646C247.812 70.5727 251.481 62.7866 251.907 61.8379C248.238 61.8379 244.536 61.8379 240.867 61.8379C240.507 62.165 237.068 65.2075 232.318 64.2915C226.88 63.2446 224.98 57.9775 224.915 57.7485C234.414 57.7812 243.914 57.7812 253.413 57.8139C255.084 49.8315 251.579 41.6528 244.766 37.3999ZM224.587 50.2568C226.094 46.2656 229.796 43.5503 233.956 43.3867C238.476 43.1904 242.702 46.102 244.241 50.4858C237.69 50.4204 231.139 50.355 224.587 50.2568Z" fill="white"/>
<path d="M276.212 18.1636C276.212 20.748 276.245 23.3652 276.245 25.9497C275.623 26.0151 271.987 26.5713 269.628 29.8428C267.728 32.4927 267.826 35.2734 267.859 36.0913C273.264 36.0913 278.702 36.0913 284.107 36.0913C288.594 44.2373 293.082 52.3833 297.57 60.5293C293.016 68.6426 288.463 76.7559 283.91 84.8691C280.503 84.8691 277.129 84.8691 273.723 84.8691C278.079 76.7231 282.436 68.6099 286.793 60.4639C283.681 54.7715 280.602 49.0791 277.49 43.3867C274.28 43.3867 271.069 43.3867 267.859 43.3867C267.859 53.2012 267.859 63.0156 267.859 72.7974C264.878 72.7974 261.93 72.7974 258.949 72.7974C258.949 62.9829 258.949 53.1685 258.949 43.3867C257.508 43.3867 256.099 43.3867 254.658 43.3867C254.658 40.9658 254.658 38.5776 254.658 36.1567C256.099 36.1567 257.541 36.1567 258.949 36.1567C258.884 34.8809 258.654 29.1885 262.847 24.1831C267.892 18.1636 275.197 18.1636 276.212 18.1636Z" fill="white"/>
<path d="M294.359 46.4946C296.096 49.7007 297.864 52.9067 299.601 56.1128C303.302 49.3735 307.036 42.6343 310.738 35.895C307.167 35.895 303.597 35.895 300.026 35.895C298.127 39.4282 296.227 42.9614 294.359 46.4946Z" fill="white"/>
<path d="M123.774 102.126C123.774 103.17 123.414 104.04 122.694 104.736C121.986 105.42 120.9 105.762 119.436 105.762H117.024V111H115.386V98.454H119.436C120.852 98.454 121.926 98.796 122.658 99.48C123.402 100.164 123.774 101.046 123.774 102.126ZM119.436 104.412C120.348 104.412 121.02 104.214 121.452 103.818C121.884 103.422 122.1 102.858 122.1 102.126C122.1 100.578 121.212 99.804 119.436 99.804H117.024V104.412H119.436ZM127.448 102.738C127.736 102.174 128.144 101.736 128.672 101.424C129.212 101.112 129.866 100.956 130.634 100.956V102.648H130.202C128.366 102.648 127.448 103.644 127.448 105.636V111H125.81V101.136H127.448V102.738ZM136.827 111.162C135.903 111.162 135.063 110.952 134.307 110.532C133.563 110.112 132.975 109.518 132.543 108.75C132.123 107.97 131.913 107.07 131.913 106.05C131.913 105.042 132.129 104.154 132.561 103.386C133.005 102.606 133.605 102.012 134.361 101.604C135.117 101.184 135.963 100.974 136.899 100.974C137.835 100.974 138.681 101.184 139.437 101.604C140.193 102.012 140.787 102.6 141.219 103.368C141.663 104.136 141.885 105.03 141.885 106.05C141.885 107.07 141.657 107.97 141.201 108.75C140.757 109.518 140.151 110.112 139.383 110.532C138.615 110.952 137.763 111.162 136.827 111.162ZM136.827 109.722C137.415 109.722 137.967 109.584 138.483 109.308C138.999 109.032 139.413 108.618 139.725 108.066C140.049 107.514 140.211 106.842 140.211 106.05C140.211 105.258 140.055 104.586 139.743 104.034C139.431 103.482 139.023 103.074 138.519 102.81C138.015 102.534 137.469 102.396 136.881 102.396C136.281 102.396 135.729 102.534 135.225 102.81C134.733 103.074 134.337 103.482 134.037 104.034C133.737 104.586 133.587 105.258 133.587 106.05C133.587 106.854 133.731 107.532 134.019 108.084C134.319 108.636 134.715 109.05 135.207 109.326C135.699 109.59 136.239 109.722 136.827 109.722ZM143.426 106.05C143.426 105.03 143.63 104.142 144.038 103.386C144.446 102.618 145.01 102.024 145.73 101.604C146.462 101.184 147.296 100.974 148.232 100.974C149.444 100.974 150.44 101.268 151.22 101.856C152.012 102.444 152.534 103.26 152.786 104.304H151.022C150.854 103.704 150.524 103.23 150.032 102.882C149.552 102.534 148.952 102.36 148.232 102.36C147.296 102.36 146.54 102.684 145.964 103.332C145.388 103.968 145.1 104.874 145.1 106.05C145.1 107.238 145.388 108.156 145.964 108.804C146.54 109.452 147.296 109.776 148.232 109.776C148.952 109.776 149.552 109.608 150.032 109.272C150.512 108.936 150.842 108.456 151.022 107.832H152.786C152.522 108.84 151.994 109.65 151.202 110.262C150.41 110.862 149.42 111.162 148.232 111.162C147.296 111.162 146.462 110.952 145.73 110.532C145.01 110.112 144.446 109.518 144.038 108.75C143.63 107.982 143.426 107.082 143.426 106.05ZM163.972 105.69C163.972 106.002 163.954 106.332 163.918 106.68H156.034C156.094 107.652 156.424 108.414 157.024 108.966C157.636 109.506 158.374 109.776 159.238 109.776C159.946 109.776 160.534 109.614 161.002 109.29C161.482 108.954 161.818 108.51 162.01 107.958H163.774C163.51 108.906 162.982 109.68 162.19 110.28C161.398 110.868 160.414 111.162 159.238 111.162C158.302 111.162 157.462 110.952 156.718 110.532C155.986 110.112 155.41 109.518 154.99 108.75C154.57 107.97 154.36 107.07 154.36 106.05C154.36 105.03 154.564 104.136 154.972 103.368C155.38 102.6 155.95 102.012 156.682 101.604C157.426 101.184 158.278 100.974 159.238 100.974C160.174 100.974 161.002 101.178 161.722 101.586C162.442 101.994 162.994 102.558 163.378 103.278C163.774 103.986 163.972 104.79 163.972 105.69ZM162.28 105.348C162.28 104.724 162.142 104.19 161.866 103.746C161.59 103.29 161.212 102.948 160.732 102.72C160.264 102.48 159.742 102.36 159.166 102.36C158.338 102.36 157.63 102.624 157.042 103.152C156.466 103.68 156.136 104.412 156.052 105.348H162.28ZM169.626 111.162C168.87 111.162 168.192 111.036 167.592 110.784C166.992 110.52 166.518 110.16 166.17 109.704C165.822 109.236 165.63 108.702 165.594 108.102H167.286C167.334 108.594 167.562 108.996 167.97 109.308C168.39 109.62 168.936 109.776 169.608 109.776C170.232 109.776 170.724 109.638 171.084 109.362C171.444 109.086 171.624 108.738 171.624 108.318C171.624 107.886 171.432 107.568 171.048 107.364C170.664 107.148 170.07 106.938 169.266 106.734C168.534 106.542 167.934 106.35 167.466 106.158C167.01 105.954 166.614 105.66 166.278 105.276C165.954 104.88 165.792 104.364 165.792 103.728C165.792 103.224 165.942 102.762 166.242 102.342C166.542 101.922 166.968 101.592 167.52 101.352C168.072 101.1 168.702 100.974 169.41 100.974C170.502 100.974 171.384 101.25 172.056 101.802C172.728 102.354 173.088 103.11 173.136 104.07H171.498C171.462 103.554 171.252 103.14 170.868 102.828C170.496 102.516 169.992 102.36 169.356 102.36C168.768 102.36 168.3 102.486 167.952 102.738C167.604 102.99 167.43 103.32 167.43 103.728C167.43 104.052 167.532 104.322 167.736 104.538C167.952 104.742 168.216 104.91 168.528 105.042C168.852 105.162 169.296 105.3 169.86 105.456C170.568 105.648 171.144 105.84 171.588 106.032C172.032 106.212 172.41 106.488 172.722 106.86C173.046 107.232 173.214 107.718 173.226 108.318C173.226 108.858 173.076 109.344 172.776 109.776C172.476 110.208 172.05 110.55 171.498 110.802C170.958 111.042 170.334 111.162 169.626 111.162ZM179.03 111.162C178.274 111.162 177.596 111.036 176.996 110.784C176.396 110.52 175.922 110.16 175.574 109.704C175.226 109.236 175.034 108.702 174.998 108.102H176.69C176.738 108.594 176.966 108.996 177.374 109.308C177.794 109.62 178.34 109.776 179.012 109.776C179.636 109.776 180.128 109.638 180.488 109.362C180.848 109.086 181.028 108.738 181.028 108.318C181.028 107.886 180.836 107.568 180.452 107.364C180.068 107.148 179.474 106.938 178.67 106.734C177.938 106.542 177.338 106.35 176.87 106.158C176.414 105.954 176.018 105.66 175.682 105.276C175.358 104.88 175.196 104.364 175.196 103.728C175.196 103.224 175.346 102.762 175.646 102.342C175.946 101.922 176.372 101.592 176.924 101.352C177.476 101.1 178.106 100.974 178.814 100.974C179.906 100.974 180.788 101.25 181.46 101.802C182.132 102.354 182.492 103.11 182.54 104.07H180.902C180.866 103.554 180.656 103.14 180.272 102.828C179.9 102.516 179.396 102.36 178.76 102.36C178.172 102.36 177.704 102.486 177.356 102.738C177.008 102.99 176.834 103.32 176.834 103.728C176.834 104.052 176.936 104.322 177.14 104.538C177.356 104.742 177.62 104.91 177.932 105.042C178.256 105.162 178.7 105.3 179.264 105.456C179.972 105.648 180.548 105.84 180.992 106.032C181.436 106.212 181.814 106.488 182.126 106.86C182.45 107.232 182.618 107.718 182.63 108.318C182.63 108.858 182.48 109.344 182.18 109.776C181.88 110.208 181.454 110.55 180.902 110.802C180.362 111.042 179.738 111.162 179.03 111.162ZM201.603 100.956C202.371 100.956 203.055 101.118 203.655 101.442C204.255 101.754 204.729 102.228 205.077 102.864C205.425 103.5 205.599 104.274 205.599 105.186V111H203.979V105.42C203.979 104.436 203.733 103.686 203.241 103.17C202.761 102.642 202.107 102.378 201.279 102.378C200.427 102.378 199.749 102.654 199.245 103.206C198.741 103.746 198.489 104.532 198.489 105.564V111H196.869V105.42C196.869 104.436 196.623 103.686 196.131 103.17C195.651 102.642 194.997 102.378 194.169 102.378C193.317 102.378 192.639 102.654 192.135 103.206C191.631 103.746 191.379 104.532 191.379 105.564V111H189.741V101.136H191.379V102.558C191.703 102.042 192.135 101.646 192.675 101.37C193.227 101.094 193.833 100.956 194.493 100.956C195.321 100.956 196.053 101.142 196.689 101.514C197.325 101.886 197.799 102.432 198.111 103.152C198.387 102.456 198.843 101.916 199.479 101.532C200.115 101.148 200.823 100.956 201.603 100.956ZM207.674 106.032C207.674 105.024 207.878 104.142 208.286 103.386C208.694 102.618 209.252 102.024 209.96 101.604C210.68 101.184 211.478 100.974 212.354 100.974C213.218 100.974 213.968 101.16 214.604 101.532C215.24 101.904 215.714 102.372 216.026 102.936V101.136H217.682V111H216.026V109.164C215.702 109.74 215.216 110.22 214.568 110.604C213.932 110.976 213.188 111.162 212.336 111.162C211.46 111.162 210.668 110.946 209.96 110.514C209.252 110.082 208.694 109.476 208.286 108.696C207.878 107.916 207.674 107.028 207.674 106.032ZM216.026 106.05C216.026 105.306 215.876 104.658 215.576 104.106C215.276 103.554 214.868 103.134 214.352 102.846C213.848 102.546 213.29 102.396 212.678 102.396C212.066 102.396 211.508 102.54 211.004 102.828C210.5 103.116 210.098 103.536 209.798 104.088C209.498 104.64 209.348 105.288 209.348 106.032C209.348 106.788 209.498 107.448 209.798 108.012C210.098 108.564 210.5 108.99 211.004 109.29C211.508 109.578 212.066 109.722 212.678 109.722C213.29 109.722 213.848 109.578 214.352 109.29C214.868 108.99 215.276 108.564 215.576 108.012C215.876 107.448 216.026 106.794 216.026 106.05ZM225.256 100.956C226.456 100.956 227.428 101.322 228.172 102.054C228.916 102.774 229.288 103.818 229.288 105.186V111H227.668V105.42C227.668 104.436 227.422 103.686 226.93 103.17C226.438 102.642 225.766 102.378 224.914 102.378C224.05 102.378 223.36 102.648 222.844 103.188C222.34 103.728 222.088 104.514 222.088 105.546V111H220.45V101.136H222.088V102.54C222.412 102.036 222.85 101.646 223.402 101.37C223.966 101.094 224.584 100.956 225.256 100.956ZM231.352 106.032C231.352 105.024 231.556 104.142 231.964 103.386C232.372 102.618 232.93 102.024 233.638 101.604C234.358 101.184 235.156 100.974 236.032 100.974C236.896 100.974 237.646 101.16 238.282 101.532C238.918 101.904 239.392 102.372 239.704 102.936V101.136H241.36V111H239.704V109.164C239.38 109.74 238.894 110.22 238.246 110.604C237.61 110.976 236.866 111.162 236.014 111.162C235.138 111.162 234.346 110.946 233.638 110.514C232.93 110.082 232.372 109.476 231.964 108.696C231.556 107.916 231.352 107.028 231.352 106.032ZM239.704 106.05C239.704 105.306 239.554 104.658 239.254 104.106C238.954 103.554 238.546 103.134 238.03 102.846C237.526 102.546 236.968 102.396 236.356 102.396C235.744 102.396 235.186 102.54 234.682 102.828C234.178 103.116 233.776 103.536 233.476 104.088C233.176 104.64 233.026 105.288 233.026 106.032C233.026 106.788 233.176 107.448 233.476 108.012C233.776 108.564 234.178 108.99 234.682 109.29C235.186 109.578 235.744 109.722 236.356 109.722C236.968 109.722 237.526 109.578 238.03 109.29C238.546 108.99 238.954 108.564 239.254 108.012C239.554 107.448 239.704 106.794 239.704 106.05ZM248.196 100.974C249.048 100.974 249.792 101.16 250.428 101.532C251.076 101.904 251.556 102.372 251.868 102.936V101.136H253.524V111.216C253.524 112.116 253.332 112.914 252.948 113.61C252.564 114.318 252.012 114.87 251.292 115.266C250.584 115.662 249.756 115.86 248.808 115.86C247.512 115.86 246.432 115.554 245.568 114.942C244.704 114.33 244.194 113.496 244.038 112.44H245.658C245.838 113.04 246.21 113.52 246.774 113.88C247.338 114.252 248.016 114.438 248.808 114.438C249.708 114.438 250.44 114.156 251.004 113.592C251.58 113.028 251.868 112.236 251.868 111.216V109.146C251.544 109.722 251.064 110.202 250.428 110.586C249.792 110.97 249.048 111.162 248.196 111.162C247.32 111.162 246.522 110.946 245.802 110.514C245.094 110.082 244.536 109.476 244.128 108.696C243.72 107.916 243.516 107.028 243.516 106.032C243.516 105.024 243.72 104.142 244.128 103.386C244.536 102.618 245.094 102.024 245.802 101.604C246.522 101.184 247.32 100.974 248.196 100.974ZM251.868 106.05C251.868 105.306 251.718 104.658 251.418 104.106C251.118 103.554 250.71 103.134 250.194 102.846C249.69 102.546 249.132 102.396 248.52 102.396C247.908 102.396 247.35 102.54 246.846 102.828C246.342 103.116 245.94 103.536 245.64 104.088C245.34 104.64 245.19 105.288 245.19 106.032C245.19 106.788 245.34 107.448 245.64 108.012C245.94 108.564 246.342 108.99 246.846 109.29C247.35 109.578 247.908 109.722 248.52 109.722C249.132 109.722 249.69 109.578 250.194 109.29C250.71 108.99 251.118 108.564 251.418 108.012C251.718 107.448 251.868 106.794 251.868 106.05ZM265.292 105.69C265.292 106.002 265.274 106.332 265.238 106.68H257.354C257.414 107.652 257.744 108.414 258.344 108.966C258.956 109.506 259.694 109.776 260.558 109.776C261.266 109.776 261.854 109.614 262.322 109.29C262.802 108.954 263.138 108.51 263.33 107.958H265.094C264.83 108.906 264.302 109.68 263.51 110.28C262.718 110.868 261.734 111.162 260.558 111.162C259.622 111.162 258.782 110.952 258.038 110.532C257.306 110.112 256.73 109.518 256.31 108.75C255.89 107.97 255.68 107.07 255.68 106.05C255.68 105.03 255.884 104.136 256.292 103.368C256.7 102.6 257.27 102.012 258.002 101.604C258.746 101.184 259.598 100.974 260.558 100.974C261.494 100.974 262.322 101.178 263.042 101.586C263.762 101.994 264.314 102.558 264.698 103.278C265.094 103.986 265.292 104.79 265.292 105.69ZM263.6 105.348C263.6 104.724 263.462 104.19 263.186 103.746C262.91 103.29 262.532 102.948 262.052 102.72C261.584 102.48 261.062 102.36 260.486 102.36C259.658 102.36 258.95 102.624 258.362 103.152C257.786 103.68 257.456 104.412 257.372 105.348H263.6ZM279.316 100.956C280.084 100.956 280.768 101.118 281.368 101.442C281.968 101.754 282.442 102.228 282.79 102.864C283.138 103.5 283.312 104.274 283.312 105.186V111H281.692V105.42C281.692 104.436 281.446 103.686 280.954 103.17C280.474 102.642 279.82 102.378 278.992 102.378C278.14 102.378 277.462 102.654 276.958 103.206C276.454 103.746 276.202 104.532 276.202 105.564V111H274.582V105.42C274.582 104.436 274.336 103.686 273.844 103.17C273.364 102.642 272.71 102.378 271.882 102.378C271.03 102.378 270.352 102.654 269.848 103.206C269.344 103.746 269.092 104.532 269.092 105.564V111H267.454V101.136H269.092V102.558C269.416 102.042 269.848 101.646 270.388 101.37C270.94 101.094 271.546 100.956 272.206 100.956C273.034 100.956 273.766 101.142 274.402 101.514C275.038 101.886 275.512 102.432 275.824 103.152C276.1 102.456 276.556 101.916 277.192 101.532C277.828 101.148 278.536 100.956 279.316 100.956ZM294.999 105.69C294.999 106.002 294.981 106.332 294.945 106.68H287.061C287.121 107.652 287.451 108.414 288.051 108.966C288.663 109.506 289.401 109.776 290.265 109.776C290.973 109.776 291.561 109.614 292.029 109.29C292.509 108.954 292.845 108.51 293.037 107.958H294.801C294.537 108.906 294.009 109.68 293.217 110.28C292.425 110.868 291.441 111.162 290.265 111.162C289.329 111.162 288.489 110.952 287.745 110.532C287.013 110.112 286.437 109.518 286.017 108.75C285.597 107.97 285.387 107.07 285.387 106.05C285.387 105.03 285.591 104.136 285.999 103.368C286.407 102.6 286.977 102.012 287.709 101.604C288.453 101.184 289.305 100.974 290.265 100.974C291.201 100.974 292.029 101.178 292.749 101.586C293.469 101.994 294.021 102.558 294.405 103.278C294.801 103.986 294.999 104.79 294.999 105.69ZM293.307 105.348C293.307 104.724 293.169 104.19 292.893 103.746C292.617 103.29 292.239 102.948 291.759 102.72C291.291 102.48 290.769 102.36 290.193 102.36C289.365 102.36 288.657 102.624 288.069 103.152C287.493 103.68 287.163 104.412 287.079 105.348H293.307ZM301.967 100.956C303.167 100.956 304.139 101.322 304.883 102.054C305.627 102.774 305.999 103.818 305.999 105.186V111H304.379V105.42C304.379 104.436 304.133 103.686 303.641 103.17C303.149 102.642 302.477 102.378 301.625 102.378C300.761 102.378 300.071 102.648 299.555 103.188C299.051 103.728 298.799 104.514 298.799 105.546V111H297.161V101.136H298.799V102.54C299.123 102.036 299.561 101.646 300.113 101.37C300.677 101.094 301.295 100.956 301.967 100.956ZM310.673 102.486V108.3C310.673 108.78 310.775 109.122 310.979 109.326C311.183 109.518 311.537 109.614 312.041 109.614H313.247V111H311.771C310.859 111 310.175 110.79 309.719 110.37C309.263 109.95 309.035 109.26 309.035 108.3V102.486H307.757V101.136H309.035V98.652H310.673V101.136H313.247V102.486H310.673ZM117.024 126.954C117.348 126.39 117.828 125.922 118.464 125.55C119.112 125.166 119.862 124.974 120.714 124.974C121.59 124.974 122.382 125.184 123.09 125.604C123.81 126.024 124.374 126.618 124.782 127.386C125.19 128.142 125.394 129.024 125.394 130.032C125.394 131.028 125.19 131.916 124.782 132.696C124.374 133.476 123.81 134.082 123.09 134.514C122.382 134.946 121.59 135.162 120.714 135.162C119.874 135.162 119.13 134.976 118.482 134.604C117.846 134.22 117.36 133.746 117.024 133.182V139.68H115.386V125.136H117.024V126.954ZM123.72 130.032C123.72 129.288 123.57 128.64 123.27 128.088C122.97 127.536 122.562 127.116 122.046 126.828C121.542 126.54 120.984 126.396 120.372 126.396C119.772 126.396 119.214 126.546 118.698 126.846C118.194 127.134 117.786 127.56 117.474 128.124C117.174 128.676 117.024 129.318 117.024 130.05C117.024 130.794 117.174 131.448 117.474 132.012C117.786 132.564 118.194 132.99 118.698 133.29C119.214 133.578 119.772 133.722 120.372 133.722C120.984 133.722 121.542 133.578 122.046 133.29C122.562 132.99 122.97 132.564 123.27 132.012C123.57 131.448 123.72 130.788 123.72 130.032ZM129.188 121.68V135H127.55V121.68H129.188ZM131.368 130.032C131.368 129.024 131.572 128.142 131.98 127.386C132.388 126.618 132.946 126.024 133.654 125.604C134.374 125.184 135.172 124.974 136.048 124.974C136.912 124.974 137.662 125.16 138.298 125.532C138.934 125.904 139.408 126.372 139.72 126.936V125.136H141.376V135H139.72V133.164C139.396 133.74 138.91 134.22 138.262 134.604C137.626 134.976 136.882 135.162 136.03 135.162C135.154 135.162 134.362 134.946 133.654 134.514C132.946 134.082 132.388 133.476 131.98 132.696C131.572 131.916 131.368 131.028 131.368 130.032ZM139.72 130.05C139.72 129.306 139.57 128.658 139.27 128.106C138.97 127.554 138.562 127.134 138.046 126.846C137.542 126.546 136.984 126.396 136.372 126.396C135.76 126.396 135.202 126.54 134.698 126.828C134.194 127.116 133.792 127.536 133.492 128.088C133.192 128.64 133.042 129.288 133.042 130.032C133.042 130.788 133.192 131.448 133.492 132.012C133.792 132.564 134.194 132.99 134.698 133.29C135.202 133.578 135.76 133.722 136.372 133.722C136.984 133.722 137.542 133.578 138.046 133.29C138.562 132.99 138.97 132.564 139.27 132.012C139.57 131.448 139.72 130.794 139.72 130.05ZM146.142 126.486V132.3C146.142 132.78 146.244 133.122 146.448 133.326C146.652 133.518 147.006 133.614 147.51 133.614H148.716V135H147.24C146.328 135 145.644 134.79 145.188 134.37C144.732 133.95 144.504 133.26 144.504 132.3V126.486H143.226V125.136H144.504V122.652H146.142V125.136H148.716V126.486H146.142ZM150.088 130.032C150.088 129.024 150.292 128.142 150.7 127.386C151.108 126.618 151.666 126.024 152.374 125.604C153.094 125.184 153.892 124.974 154.768 124.974C155.632 124.974 156.382 125.16 157.018 125.532C157.654 125.904 158.128 126.372 158.44 126.936V125.136H160.096V135H158.44V133.164C158.116 133.74 157.63 134.22 156.982 134.604C156.346 134.976 155.602 135.162 154.75 135.162C153.874 135.162 153.082 134.946 152.374 134.514C151.666 134.082 151.108 133.476 150.7 132.696C150.292 131.916 150.088 131.028 150.088 130.032ZM158.44 130.05C158.44 129.306 158.29 128.658 157.99 128.106C157.69 127.554 157.282 127.134 156.766 126.846C156.262 126.546 155.704 126.396 155.092 126.396C154.48 126.396 153.922 126.54 153.418 126.828C152.914 127.116 152.512 127.536 152.212 128.088C151.912 128.64 151.762 129.288 151.762 130.032C151.762 130.788 151.912 131.448 152.212 132.012C152.512 132.564 152.914 132.99 153.418 133.29C153.922 133.578 154.48 133.722 155.092 133.722C155.704 133.722 156.262 133.578 156.766 133.29C157.282 132.99 157.69 132.564 157.99 132.012C158.29 131.448 158.44 130.794 158.44 130.05ZM166.879 126.486H164.809V135H163.171V126.486H161.893V125.136H163.171V124.434C163.171 123.33 163.453 122.526 164.017 122.022C164.593 121.506 165.511 121.248 166.771 121.248V122.616C166.051 122.616 165.541 122.76 165.241 123.048C164.953 123.324 164.809 123.786 164.809 124.434V125.136H166.879V126.486ZM173.09 135.162C172.166 135.162 171.326 134.952 170.57 134.532C169.826 134.112 169.238 133.518 168.806 132.75C168.386 131.97 168.176 131.07 168.176 130.05C168.176 129.042 168.392 128.154 168.824 127.386C169.268 126.606 169.868 126.012 170.624 125.604C171.38 125.184 172.226 124.974 173.162 124.974C174.098 124.974 174.944 125.184 175.7 125.604C176.456 126.012 177.05 126.6 177.482 127.368C177.926 128.136 178.148 129.03 178.148 130.05C178.148 131.07 177.92 131.97 177.464 132.75C177.02 133.518 176.414 134.112 175.646 134.532C174.878 134.952 174.026 135.162 173.09 135.162ZM173.09 133.722C173.678 133.722 174.23 133.584 174.746 133.308C175.262 133.032 175.676 132.618 175.988 132.066C176.312 131.514 176.474 130.842 176.474 130.05C176.474 129.258 176.318 128.586 176.006 128.034C175.694 127.482 175.286 127.074 174.782 126.81C174.278 126.534 173.732 126.396 173.144 126.396C172.544 126.396 171.992 126.534 171.488 126.81C170.996 127.074 170.6 127.482 170.3 128.034C170 128.586 169.85 129.258 169.85 130.05C169.85 130.854 169.994 131.532 170.282 132.084C170.582 132.636 170.978 133.05 171.47 133.326C171.962 133.59 172.502 133.722 173.09 133.722ZM181.94 126.738C182.228 126.174 182.636 125.736 183.164 125.424C183.704 125.112 184.358 124.956 185.126 124.956V126.648H184.694C182.858 126.648 181.94 127.644 181.94 129.636V135H180.302V125.136H181.94V126.738ZM198.879 124.956C199.647 124.956 200.331 125.118 200.931 125.442C201.531 125.754 202.005 126.228 202.353 126.864C202.701 127.5 202.875 128.274 202.875 129.186V135H201.255V129.42C201.255 128.436 201.009 127.686 200.517 127.17C200.037 126.642 199.383 126.378 198.555 126.378C197.703 126.378 197.025 126.654 196.521 127.206C196.017 127.746 195.765 128.532 195.765 129.564V135H194.145V129.42C194.145 128.436 193.899 127.686 193.407 127.17C192.927 126.642 192.273 126.378 191.445 126.378C190.593 126.378 189.915 126.654 189.411 127.206C188.907 127.746 188.655 128.532 188.655 129.564V135H187.017V125.136H188.655V126.558C188.979 126.042 189.411 125.646 189.951 125.37C190.503 125.094 191.109 124.956 191.769 124.956C192.597 124.956 193.329 125.142 193.965 125.514C194.601 125.886 195.075 126.432 195.387 127.152C195.663 126.456 196.119 125.916 196.755 125.532C197.391 125.148 198.099 124.956 198.879 124.956ZM212.402 127.71V129.096H205.22V127.71H212.402ZM217.114 126.972C217.45 126.384 217.942 125.904 218.59 125.532C219.238 125.16 219.976 124.974 220.804 124.974C221.692 124.974 222.49 125.184 223.198 125.604C223.906 126.024 224.464 126.618 224.872 127.386C225.28 128.142 225.484 129.024 225.484 130.032C225.484 131.028 225.28 131.916 224.872 132.696C224.464 133.476 223.9 134.082 223.18 134.514C222.472 134.946 221.68 135.162 220.804 135.162C219.952 135.162 219.202 134.976 218.554 134.604C217.918 134.232 217.438 133.758 217.114 133.182V135H215.476V121.68H217.114V126.972ZM223.81 130.032C223.81 129.288 223.66 128.64 223.36 128.088C223.06 127.536 222.652 127.116 222.136 126.828C221.632 126.54 221.074 126.396 220.462 126.396C219.862 126.396 219.304 126.546 218.788 126.846C218.284 127.134 217.876 127.56 217.564 128.124C217.264 128.676 217.114 129.318 217.114 130.05C217.114 130.794 217.264 131.448 217.564 132.012C217.876 132.564 218.284 132.99 218.788 133.29C219.304 133.578 219.862 133.722 220.462 133.722C221.074 133.722 221.632 133.578 222.136 133.29C222.652 132.99 223.06 132.564 223.36 132.012C223.66 131.448 223.81 130.788 223.81 130.032ZM227.028 130.032C227.028 129.024 227.232 128.142 227.64 127.386C228.048 126.618 228.606 126.024 229.314 125.604C230.034 125.184 230.832 124.974 231.708 124.974C232.572 124.974 233.322 125.16 233.958 125.532C234.594 125.904 235.068 126.372 235.38 126.936V125.136H237.036V135H235.38V133.164C235.056 133.74 234.57 134.22 233.922 134.604C233.286 134.976 232.542 135.162 231.69 135.162C230.814 135.162 230.022 134.946 229.314 134.514C228.606 134.082 228.048 133.476 227.64 132.696C227.232 131.916 227.028 131.028 227.028 130.032ZM235.38 130.05C235.38 129.306 235.23 128.658 234.93 128.106C234.63 127.554 234.222 127.134 233.706 126.846C233.202 126.546 232.644 126.396 232.032 126.396C231.42 126.396 230.862 126.54 230.358 126.828C229.854 127.116 229.452 127.536 229.152 128.088C228.852 128.64 228.702 129.288 228.702 130.032C228.702 130.788 228.852 131.448 229.152 132.012C229.452 132.564 229.854 132.99 230.358 133.29C230.862 133.578 231.42 133.722 232.032 133.722C232.644 133.722 233.202 133.578 233.706 133.29C234.222 132.99 234.63 132.564 234.93 132.012C235.23 131.448 235.38 130.794 235.38 130.05ZM243.296 135.162C242.54 135.162 241.862 135.036 241.262 134.784C240.662 134.52 240.188 134.16 239.84 133.704C239.492 133.236 239.3 132.702 239.264 132.102H240.956C241.004 132.594 241.232 132.996 241.64 133.308C242.06 133.62 242.606 133.776 243.278 133.776C243.902 133.776 244.394 133.638 244.754 133.362C245.114 133.086 245.294 132.738 245.294 132.318C245.294 131.886 245.102 131.568 244.718 131.364C244.334 131.148 243.74 130.938 242.936 130.734C242.204 130.542 241.604 130.35 241.136 130.158C240.68 129.954 240.284 129.66 239.948 129.276C239.624 128.88 239.462 128.364 239.462 127.728C239.462 127.224 239.612 126.762 239.912 126.342C240.212 125.922 240.638 125.592 241.19 125.352C241.742 125.1 242.372 124.974 243.08 124.974C244.172 124.974 245.054 125.25 245.726 125.802C246.398 126.354 246.758 127.11 246.806 128.07H245.168C245.132 127.554 244.922 127.14 244.538 126.828C244.166 126.516 243.662 126.36 243.026 126.36C242.438 126.36 241.97 126.486 241.622 126.738C241.274 126.99 241.1 127.32 241.1 127.728C241.1 128.052 241.202 128.322 241.406 128.538C241.622 128.742 241.886 128.91 242.198 129.042C242.522 129.162 242.966 129.3 243.53 129.456C244.238 129.648 244.814 129.84 245.258 130.032C245.702 130.212 246.08 130.488 246.392 130.86C246.716 131.232 246.884 131.718 246.896 132.318C246.896 132.858 246.746 133.344 246.446 133.776C246.146 134.208 245.72 134.55 245.168 134.802C244.628 135.042 244.004 135.162 243.296 135.162ZM258.208 129.69C258.208 130.002 258.19 130.332 258.154 130.68H250.27C250.33 131.652 250.66 132.414 251.26 132.966C251.872 133.506 252.61 133.776 253.474 133.776C254.182 133.776 254.77 133.614 255.238 133.29C255.718 132.954 256.054 132.51 256.246 131.958H258.01C257.746 132.906 257.218 133.68 256.426 134.28C255.634 134.868 254.65 135.162 253.474 135.162C252.538 135.162 251.698 134.952 250.954 134.532C250.222 134.112 249.646 133.518 249.226 132.75C248.806 131.97 248.596 131.07 248.596 130.05C248.596 129.03 248.8 128.136 249.208 127.368C249.616 126.6 250.186 126.012 250.918 125.604C251.662 125.184 252.514 124.974 253.474 124.974C254.41 124.974 255.238 125.178 255.958 125.586C256.678 125.994 257.23 126.558 257.614 127.278C258.01 127.986 258.208 128.79 258.208 129.69ZM256.516 129.348C256.516 128.724 256.378 128.19 256.102 127.746C255.826 127.29 255.448 126.948 254.968 126.72C254.5 126.48 253.978 126.36 253.402 126.36C252.574 126.36 251.866 126.624 251.278 127.152C250.702 127.68 250.372 128.412 250.288 129.348H256.516ZM259.758 130.032C259.758 129.024 259.962 128.142 260.37 127.386C260.778 126.618 261.336 126.024 262.044 125.604C262.764 125.184 263.568 124.974 264.456 124.974C265.224 124.974 265.938 125.154 266.598 125.514C267.258 125.862 267.762 126.324 268.11 126.9V121.68H269.766V135H268.11V133.146C267.786 133.734 267.306 134.22 266.67 134.604C266.034 134.976 265.29 135.162 264.438 135.162C263.562 135.162 262.764 134.946 262.044 134.514C261.336 134.082 260.778 133.476 260.37 132.696C259.962 131.916 259.758 131.028 259.758 130.032ZM268.11 130.05C268.11 129.306 267.96 128.658 267.66 128.106C267.36 127.554 266.952 127.134 266.436 126.846C265.932 126.546 265.374 126.396 264.762 126.396C264.15 126.396 263.592 126.54 263.088 126.828C262.584 127.116 262.182 127.536 261.882 128.088C261.582 128.64 261.432 129.288 261.432 130.032C261.432 130.788 261.582 131.448 261.882 132.012C262.182 132.564 262.584 132.99 263.088 133.29C263.592 133.578 264.15 133.722 264.762 133.722C265.374 133.722 265.932 133.578 266.436 133.29C266.952 132.99 267.36 132.564 267.66 132.012C267.96 131.448 268.11 130.794 268.11 130.05Z" fill="#C2D3FF"/>
<path d="M707.965 87.7976C710.298 86.6442 711.772 84.2766 711.649 81.7268C711.526 79.4199 710.114 77.2951 707.965 76.2631C710.237 75.0489 711.711 72.6813 711.649 70.1922C711.588 66.7926 708.825 64.9106 708.579 64.7285C707.965 65.5177 707.351 66.3676 706.737 67.1568C707.965 68.2496 708.395 69.8887 707.965 71.4064C707.351 73.4098 705.386 74.0776 705.202 74.1383C705.079 74.0776 702.991 73.4098 702.439 71.4064C702.009 69.7066 702.868 67.7639 704.588 66.8533C703.974 66.0641 703.36 65.2142 702.746 64.425C702.5 64.6071 699.491 66.489 699.368 70.1922C699.246 73.9562 702.254 76.1417 702.439 76.2631C702.132 76.4452 699.491 78.3272 699.368 81.7268C699.184 85.4907 702.254 87.6762 702.439 87.7976C700.228 89.3153 699 91.9258 699.368 94.4755C699.737 97.4503 702.07 99.0894 702.439 99.3322C703.053 98.543 703.667 97.6931 704.281 96.9039C704.219 96.8432 702.254 95.5076 702.439 93.2614C702.561 91.5616 703.789 90.1046 705.509 89.6189C707.535 90.226 708.825 92.0472 708.579 93.8685C708.333 95.9325 706.184 96.8432 706.123 96.9039C706.737 97.6931 707.351 98.543 707.965 99.3322C710.114 98.3002 711.526 96.1754 711.649 93.8685C711.772 91.3187 710.298 88.8904 707.965 87.7976ZM705.509 85.9764C703.912 85.1265 702.93 83.4874 703.053 81.7268C703.237 79.2985 705.386 78.145 705.509 78.0843C707.105 78.9342 708.088 80.5734 707.965 82.3339C707.781 84.7622 705.632 85.9157 705.509 85.9764Z" fill="white" fill-opacity="0.35"/>
<path d="M723.009 88.0405C725.342 86.887 726.816 84.5194 726.693 81.9696C726.57 79.6627 725.158 77.5379 723.009 76.5059C725.281 75.2917 726.754 72.9241 726.693 70.4351C726.632 67.0354 723.868 65.1535 723.623 64.9713C723.009 65.7605 722.395 66.6105 721.781 67.3997C723.009 68.4924 723.439 70.1315 723.009 71.6492C722.395 73.6526 720.43 74.3204 720.246 74.3811C720.123 74.3204 718.035 73.6526 717.482 71.6492C717.053 69.9494 717.912 68.0674 719.632 67.0961C719.018 66.3069 718.404 65.457 717.789 64.6678C717.544 64.8499 714.535 66.7319 714.412 70.4351C714.289 74.199 717.298 76.3845 717.482 76.5059C717.175 76.688 714.535 78.57 714.412 81.9696C714.228 85.7336 717.298 87.9191 717.482 88.0405C715.272 89.6189 714.105 92.1686 714.412 94.7184C714.781 97.6931 717.114 99.3322 717.482 99.575C718.097 98.7858 718.711 97.9359 719.325 97.1467C719.263 97.086 717.298 95.7504 717.482 93.5042C717.605 91.8044 718.833 90.3474 720.553 89.8617C722.579 90.4688 723.868 92.29 723.623 94.1113C723.377 96.1754 721.228 97.086 721.167 97.1467C721.781 97.9359 722.395 98.7858 723.009 99.575C725.158 98.543 726.57 96.4182 726.693 94.1113C726.816 91.5615 725.342 89.1939 723.009 88.0405ZM720.553 86.2192C718.956 85.3693 717.974 83.7302 718.097 81.9696C718.281 79.5413 720.43 78.3879 720.553 78.3271C722.149 79.1771 723.132 80.8162 723.009 82.5767C722.825 85.0051 720.675 86.1585 720.553 86.2192Z" fill="white"/>
<path d="M736.988 66.454V74.392C736.988 75.508 737.258 76.336 737.798 76.876C738.35 77.416 739.112 77.686 740.084 77.686C741.044 77.686 741.794 77.416 742.334 76.876C742.886 76.336 743.162 75.508 743.162 74.392V66.454H744.8V74.374C744.8 75.418 744.59 76.3 744.17 77.02C743.75 77.728 743.18 78.256 742.46 78.604C741.752 78.952 740.954 79.126 740.066 79.126C739.178 79.126 738.374 78.952 737.654 78.604C736.946 78.256 736.382 77.728 735.962 77.02C735.554 76.3 735.35 75.418 735.35 74.374V66.454H736.988ZM749.17 66.454V79H747.532V66.454H749.17Z" fill="white" fill-opacity="0.35"/>
<path d="M734.774 92.718C734.774 91.494 735.05 90.396 735.602 89.424C736.154 88.44 736.904 87.672 737.852 87.12C738.812 86.568 739.874 86.292 741.038 86.292C742.406 86.292 743.6 86.622 744.62 87.282C745.64 87.942 746.384 88.878 746.852 90.09H744.89C744.542 89.334 744.038 88.752 743.378 88.344C742.73 87.936 741.95 87.732 741.038 87.732C740.162 87.732 739.376 87.936 738.68 88.344C737.984 88.752 737.438 89.334 737.042 90.09C736.646 90.834 736.448 91.71 736.448 92.718C736.448 93.714 736.646 94.59 737.042 95.346C737.438 96.09 737.984 96.666 738.68 97.074C739.376 97.482 740.162 97.686 741.038 97.686C741.95 97.686 742.73 97.488 743.378 97.092C744.038 96.684 744.542 96.102 744.89 95.346H746.852C746.384 96.546 745.64 97.476 744.62 98.136C743.6 98.784 742.406 99.108 741.038 99.108C739.874 99.108 738.812 98.838 737.852 98.298C736.904 97.746 736.154 96.984 735.602 96.012C735.05 95.04 734.774 93.942 734.774 92.718ZM750.928 85.68V99H749.29V85.68H750.928ZM758.022 99.162C757.098 99.162 756.258 98.952 755.502 98.532C754.758 98.112 754.17 97.518 753.738 96.75C753.318 95.97 753.108 95.07 753.108 94.05C753.108 93.042 753.324 92.154 753.756 91.386C754.2 90.606 754.8 90.012 755.556 89.604C756.312 89.184 757.158 88.974 758.094 88.974C759.03 88.974 759.876 89.184 760.632 89.604C761.388 90.012 761.982 90.6 762.414 91.368C762.858 92.136 763.08 93.03 763.08 94.05C763.08 95.07 762.852 95.97 762.396 96.75C761.952 97.518 761.346 98.112 760.578 98.532C759.81 98.952 758.958 99.162 758.022 99.162ZM758.022 97.722C758.61 97.722 759.162 97.584 759.678 97.308C760.194 97.032 760.608 96.618 760.92 96.066C761.244 95.514 761.406 94.842 761.406 94.05C761.406 93.258 761.25 92.586 760.938 92.034C760.626 91.482 760.218 91.074 759.714 90.81C759.21 90.534 758.664 90.396 758.076 90.396C757.476 90.396 756.924 90.534 756.42 90.81C755.928 91.074 755.532 91.482 755.232 92.034C754.932 92.586 754.782 93.258 754.782 94.05C754.782 94.854 754.926 95.532 755.214 96.084C755.514 96.636 755.91 97.05 756.402 97.326C756.894 97.59 757.434 97.722 758.022 97.722ZM770.04 88.956C771.24 88.956 772.212 89.322 772.956 90.054C773.7 90.774 774.072 91.818 774.072 93.186V99H772.452V93.42C772.452 92.436 772.206 91.686 771.714 91.17C771.222 90.642 770.55 90.378 769.698 90.378C768.834 90.378 768.144 90.648 767.628 91.188C767.124 91.728 766.872 92.514 766.872 93.546V99H765.234V89.136H766.872V90.54C767.196 90.036 767.634 89.646 768.186 89.37C768.75 89.094 769.368 88.956 770.04 88.956ZM785.747 93.69C785.747 94.002 785.729 94.332 785.693 94.68H777.809C777.869 95.652 778.199 96.414 778.799 96.966C779.411 97.506 780.149 97.776 781.013 97.776C781.721 97.776 782.309 97.614 782.777 97.29C783.257 96.954 783.593 96.51 783.785 95.958H785.549C785.285 96.906 784.757 97.68 783.965 98.28C783.173 98.868 782.189 99.162 781.013 99.162C780.077 99.162 779.237 98.952 778.493 98.532C777.761 98.112 777.185 97.518 776.765 96.75C776.345 95.97 776.135 95.07 776.135 94.05C776.135 93.03 776.339 92.136 776.747 91.368C777.155 90.6 777.725 90.012 778.457 89.604C779.201 89.184 780.053 88.974 781.013 88.974C781.949 88.974 782.777 89.178 783.497 89.586C784.217 89.994 784.769 90.558 785.153 91.278C785.549 91.986 785.747 92.79 785.747 93.69ZM784.055 93.348C784.055 92.724 783.917 92.19 783.641 91.746C783.365 91.29 782.987 90.948 782.507 90.72C782.039 90.48 781.517 90.36 780.941 90.36C780.113 90.36 779.405 90.624 778.817 91.152C778.241 91.68 777.911 92.412 777.827 93.348H784.055Z" fill="white"/>
</g>
<defs>
<clipPath id="clip0">
<rect width="900" height="160" rx="4" fill="white"/>
</clipPath>
</defs>
</svg>
